<?xml version="1.0" standalone="no"?>
<!DOCTYPE svg PUBLIC "-//W3C//DTD SVG 20010904//EN"
 "http://www.w3.org/TR/2001/REC-SVG-20010904/DTD/svg10.dtd">
<svg version="1.0" xmlns="http://www.w3.org/2000/svg"
 width="1200.000000pt" height="531.000000pt" viewBox="0 0 1200.000000 531.000000"
 preserveAspectRatio="xMidYMid meet">

<g transform="translate(0.000000,531.000000) scale(0.100000,-0.100000)"
fill="#000000" stroke="none">
<path d="M2006 5075 c-13 -14 -28 -25 -34 -25 -6 0 -18 -7 -27 -16 -15 -15
-13 -18 24 -35 36 -16 41 -22 41 -52 0 -77 -12 -123 -34 -133 -16 -7 -21 -18
-22 -52 -1 -49 -12 -65 -44 -60 -36 5 -59 47 -70 126 -11 79 -30 126 -55 136
-62 23 -173 -19 -229 -87 -39 -48 -78 -123 -96 -184 -15 -48 -30 -57 -30 -17
0 33 -20 71 -29 55 -4 -6 -14 4 -24 27 -18 41 -57 73 -57 47 0 -12 -8 -14 -40
-9 -23 4 -60 1 -85 -6 -62 -17 -49 -25 15 -9 46 12 55 11 81 -3 27 -16 28 -16
35 5 7 21 7 21 26 -3 14 -17 19 -35 16 -62 -4 -41 2 -47 22 -23 21 26 31 -4
14 -44 -8 -19 -11 -37 -8 -40 4 -3 9 0 11 7 3 6 9 12 14 12 14 0 11 -34 -6
-56 -19 -25 -19 -40 0 -24 24 20 19 -26 -5 -50 -23 -23 -25 -31 -6 -24 30 12
24 -16 -9 -42 -40 -30 -49 -70 -14 -59 37 12 16 -18 -27 -39 -31 -16 -35 -20
-19 -23 46 -9 51 -14 31 -29 -11 -8 -34 -14 -52 -14 -57 0 -117 -69 -119 -137
0 -44 10 -42 35 6 25 50 45 62 82 49 15 -6 35 -7 43 -4 22 8 18 -11 -5 -31
-30 -26 -25 -32 25 -27 l45 4 -15 -29 c-8 -16 -24 -32 -35 -36 -18 -6 -18 -8
-5 -21 20 -21 19 -27 -5 -19 -27 9 -89 -10 -116 -36 -15 -14 -31 -20 -44 -16
-14 3 -20 1 -17 -6 2 -7 16 -13 30 -15 16 -2 27 -10 27 -18 0 -21 -61 -44
-101 -38 -36 6 -89 -9 -89 -25 0 -5 15 -7 34 -4 22 3 38 0 47 -10 8 -8 20 -11
29 -7 41 20 80 28 80 17 0 -6 13 3 29 21 34 36 61 42 61 12 0 -23 15 -27 24
-5 8 21 27 19 61 -9 l30 -25 -35 -15 -35 -15 34 -1 c27 0 32 -3 23 -12 -8 -8
-25 -6 -68 10 -31 11 -64 18 -73 14 -14 -5 -14 -4 -1 13 14 18 14 18 -11 0
l-26 -20 36 -16 c37 -16 76 -56 108 -109 9 -17 21 -30 26 -30 5 0 2 11 -7 25
-22 33 -20 42 3 21 20 -19 38 -73 27 -83 -3 -4 -20 7 -37 23 -25 24 -32 26
-40 14 -8 -13 -11 -12 -24 4 -8 11 -15 29 -15 41 0 28 -34 59 -93 85 -52 23
-61 21 -62 -12 0 -37 -30 -46 -65 -20 -33 25 -54 29 -82 17 -13 -5 -20 0 -28
20 -14 37 -3 72 32 98 56 41 88 75 88 92 0 18 -21 17 -77 0 -21 -7 -22 -5 -17
23 5 26 1 36 -24 59 -54 51 -60 54 -66 37 -8 -22 -7 -26 4 -19 11 7 51 -12 62
-29 4 -6 8 -30 8 -53 0 -48 2 -49 55 -27 20 8 40 13 43 10 8 -8 -26 -43 -66
-68 -20 -12 -42 -39 -53 -62 -10 -23 -19 -37 -19 -33 0 5 -12 0 -27 -11 -34
-23 -92 -44 -104 -36 -5 2 -19 -2 -32 -11 -23 -15 -24 -14 -36 27 -7 24 -21
57 -32 74 -10 17 -19 48 -19 68 0 20 -4 36 -10 36 -21 0 -9 -72 20 -127 26
-48 38 -93 26 -93 -2 0 -39 34 -82 75 -44 41 -81 70 -83 63 -2 -6 26 -38 63
-70 36 -33 66 -64 66 -69 0 -20 -30 -20 -58 1 -22 16 -36 20 -53 14 -13 -4
-29 -7 -35 -6 -6 1 -19 -7 -29 -18 -24 -27 -35 -25 -35 6 0 21 -4 25 -19 21
-14 -3 -18 -1 -14 9 6 17 -1 18 -27 2 -16 -10 -23 -10 -37 4 -15 16 -15 18 7
36 34 27 18 44 -36 36 -49 -6 -56 4 -25 35 19 19 19 19 0 24 -13 4 -19 1 -16
-6 2 -7 -2 -24 -9 -39 -16 -31 -6 -41 29 -33 17 5 26 2 30 -9 4 -9 3 -16 -2
-16 -5 0 -8 -8 -7 -17 1 -13 -8 -19 -27 -21 -41 -5 -62 5 -48 22 17 20 3 46
-25 46 -31 0 -47 -31 -34 -64 6 -16 6 -27 0 -31 -10 -6 -14 -45 -5 -45 3 0 16
7 28 15 15 9 35 12 59 9 l36 -6 -20 -34 c-15 -26 -27 -34 -49 -34 -35 0 -46
-21 -31 -56 18 -38 63 -33 101 13 25 30 31 34 37 20 9 -24 27 -21 55 9 35 39
103 67 142 59 40 -9 97 -43 97 -58 0 -8 -4 -7 -12 1 -20 20 -82 14 -119 -11
-35 -24 -80 -102 -111 -193 -10 -28 -29 -63 -43 -78 -32 -34 -31 -40 2 -31 30
7 29 5 -34 -68 -18 -20 -33 -43 -33 -49 0 -7 8 -1 17 12 9 14 31 42 50 63 34
39 45 74 18 63 -10 -4 -7 8 11 42 13 26 34 73 45 105 29 82 92 147 142 147 21
0 46 -5 57 -12 25 -16 35 -5 20 22 -14 26 -84 60 -125 60 -39 0 -104 -31 -134
-63 -26 -29 -41 -27 -41 4 0 28 -14 21 -42 -20 -31 -46 -53 -59 -75 -45 -10 6
-19 21 -21 33 -3 16 2 21 18 21 16 0 20 -4 16 -15 -3 -8 -1 -15 3 -15 5 0 23
25 40 55 17 30 35 55 39 55 5 0 17 7 28 15 18 14 17 14 -10 5 -16 -6 -48 -8
-71 -4 -25 3 -51 1 -64 -5 -14 -8 -21 -8 -21 -1 0 6 7 13 15 16 13 5 13 9 0
27 -16 23 -4 57 20 57 18 0 20 -26 3 -34 -9 -3 -7 -9 6 -20 15 -12 38 -15 94
-12 56 2 75 0 79 -11 4 -11 8 -11 21 -1 13 11 14 10 8 -14 -5 -24 -3 -28 14
-28 11 0 28 8 38 18 9 9 26 18 37 19 11 1 25 2 30 3 28 6 46 -2 55 -25 5 -14
16 -25 24 -25 18 0 68 -59 63 -74 -2 -6 -16 -12 -30 -14 -21 -3 -37 -18 -67
-65 -45 -70 -48 -87 -20 -105 37 -23 77 -125 59 -152 -8 -13 -14 -10 -36 15
l-26 30 7 -35 c15 -72 18 -142 6 -154 -8 -8 -14 -7 -21 7 -6 9 -17 17 -25 17
-13 0 -14 -9 -9 -54 8 -61 -5 -79 -30 -44 -16 22 -17 21 -10 -34 4 -36 2 -58
-4 -63 -6 -3 -11 -1 -11 4 0 23 -16 9 -40 -35 l-24 -46 -16 68 c-13 56 -17 64
-23 44 -3 -13 -2 -27 4 -31 6 -3 9 -12 8 -20 -2 -13 1 -25 21 -74 5 -15 2 -28
-12 -45 -10 -13 -16 -30 -14 -37 3 -8 -1 -25 -10 -38 -19 -28 -12 -58 10 -49
13 5 14 1 5 -25 -12 -33 -26 -40 -35 -16 -10 24 -20 18 -39 -25 -17 -37 -33
-49 -48 -34 -3 4 1 13 9 21 28 29 -10 59 -41 33 -21 -17 -19 -43 6 -74 15 -20
17 -27 7 -30 -40 -13 -42 -14 -22 -15 25 -1 51 24 34 34 -19 12 -10 25 15 19
19 -5 28 0 42 23 13 20 25 27 40 25 17 -3 26 4 35 25 14 30 44 71 146 197 63
78 130 203 153 286 13 45 13 45 17 13 4 -41 -47 -191 -105 -308 -65 -131 -141
-225 -265 -328 -60 -49 -108 -94 -108 -99 0 -6 15 1 33 14 66 50 135 98 141
98 11 0 6 -24 -18 -83 -13 -31 -20 -57 -15 -57 13 0 48 82 55 130 4 26 18 50
45 76 22 21 39 36 39 34 0 -3 -7 -40 -15 -83 -17 -89 -19 -126 -6 -111 4 5 18
60 30 122 16 83 32 131 58 178 19 35 36 64 37 64 2 0 -3 -30 -9 -67 -19 -103
-24 -153 -15 -153 4 0 15 51 24 113 17 108 93 366 95 319 1 -12 -11 -71 -26
-130 -30 -123 -36 -268 -14 -344 14 -50 8 -102 -12 -95 -7 2 -14 17 -17 33 -7
39 -25 32 -22 -9 2 -22 -4 -39 -18 -55 -20 -21 -19 -49 0 -37 12 7 -9 -52 -32
-91 -10 -17 -72 -79 -138 -138 -116 -104 -166 -166 -141 -174 8 -3 9 -8 2 -16
-19 -22 -50 -105 -42 -111 5 -2 25 6 45 20 34 23 36 23 36 5 0 -21 -35 -50
-62 -50 -10 0 -18 -5 -18 -12 0 -6 -8 -21 -17 -33 -10 -11 -6 -8 9 7 15 15 35
28 43 28 23 0 65 45 65 70 0 26 -20 26 -54 -1 -15 -12 -29 -19 -32 -16 -9 9
23 72 50 96 29 27 35 46 11 37 -21 -8 -19 4 6 30 12 12 27 20 34 18 7 -3 40 8
74 25 33 17 65 31 71 31 14 0 3 -44 -25 -100 -13 -25 -31 -70 -40 -100 -24
-78 -66 -140 -141 -205 -36 -32 -71 -70 -80 -86 -11 -22 -1 -15 39 26 29 30
58 55 65 55 7 0 2 -24 -13 -65 -30 -79 -46 -147 -34 -139 5 3 9 10 9 16 0 24
81 211 106 243 14 19 41 69 60 112 18 43 34 71 34 63 1 -22 39 -104 46 -97 3
3 -4 35 -15 71 -18 57 -19 70 -7 98 7 18 16 42 20 53 6 16 11 8 27 -40 20 -58
49 -104 49 -77 0 7 -6 25 -14 40 -8 15 -21 53 -29 85 l-15 58 33 72 c18 40 39
89 46 110 7 20 18 36 23 34 6 -2 16 -57 23 -123 7 -65 17 -141 23 -167 17 -81
13 -140 -13 -178 -32 -48 -51 -44 -58 11 -7 51 -10 40 -12 -42 -2 -40 -7 -63
-20 -75 -17 -17 -19 -17 -31 -1 -11 14 -14 9 -24 -42 -7 -32 -21 -68 -30 -81
l-18 -22 -21 27 c-12 14 -24 26 -28 26 -4 0 -5 -27 -1 -61 8 -77 -4 -103 -45
-95 -41 8 -80 -28 -88 -82 l-6 -42 -23 34 c-12 18 -25 56 -29 84 l-6 51 -19
-24 c-26 -34 -36 -31 -44 9 -4 26 1 49 20 93 15 31 34 65 43 75 22 24 12 31
-28 19 -32 -9 -32 -9 -7 -10 l27 -1 -32 -51 c-25 -41 -31 -62 -31 -105 0 -64
15 -87 41 -61 17 16 18 14 31 -35 8 -29 14 -73 14 -98 1 -27 2 -34 5 -17 4 26
6 26 26 12 33 -23 37 -19 37 45 0 67 12 80 74 80 43 0 56 20 56 86 0 37 3 45
12 36 7 -7 15 -12 19 -12 18 0 40 35 54 85 12 40 20 52 31 48 20 -7 42 13 49
48 4 19 13 29 25 29 10 0 32 16 49 35 35 40 41 42 41 16 0 -25 -54 -97 -140
-186 -70 -73 -94 -111 -134 -217 -38 -102 -64 -147 -113 -194 -41 -40 -42 -43
-17 -34 39 15 72 47 95 92 11 21 22 38 24 38 3 0 3 -37 1 -82 l-5 -83 10 95
c12 117 33 194 71 260 26 45 53 69 43 38 -8 -27 -14 -172 -6 -153 4 11 11 55
14 99 l7 78 79 99 c43 54 81 96 84 93 2 -2 -1 -29 -8 -59 -7 -29 -16 -80 -20
-113 -5 -46 -10 -59 -23 -58 -13 1 -19 -15 -27 -77 -11 -77 -40 -135 -65 -129
-6 1 -8 -2 -5 -9 5 -7 16 -2 32 13 36 33 43 52 51 121 7 56 9 62 30 60 20 -3
22 2 22 50 1 28 7 79 14 112 12 55 14 58 23 35 67 -163 64 -150 49 -205 -9
-27 -31 -75 -50 -105 -40 -62 -44 -80 -18 -80 10 -1 3 -8 -18 -18 -62 -30
-105 -125 -62 -135 13 -3 10 -6 -10 -11 -17 -5 -28 -15 -28 -26 0 -9 -11 -34
-25 -54 -28 -42 -31 -56 -11 -56 8 0 23 -2 33 -5 10 -3 7 0 -7 7 -14 6 -26 13
-28 14 -2 1 8 19 23 39 14 21 25 44 25 51 0 7 9 16 20 19 11 4 27 20 35 36 17
32 11 37 -17 12 -22 -20 -23 -5 -4 42 9 21 28 41 53 54 39 20 86 72 103 113
l9 23 0 -25 c1 -38 -32 -103 -68 -133 -18 -15 -28 -27 -23 -27 6 0 24 11 41
25 35 30 66 106 76 189 l8 59 44 -79 c24 -44 41 -68 37 -54 -5 19 12 7 72 -51
96 -93 209 -168 312 -207 42 -17 167 -53 277 -82 109 -28 215 -58 233 -67 19
-9 58 -41 87 -70 l53 -54 48 51 c27 29 64 60 84 70 20 10 130 43 246 73 324
85 411 128 570 280 90 86 95 89 79 52 -24 -54 -30 -92 -16 -109 20 -24 -17
-74 -61 -81 -34 -6 -36 -8 -25 -26 6 -10 17 -19 22 -19 6 0 20 -7 31 -15 16
-13 17 -16 4 -25 -13 -8 -13 -10 3 -10 29 0 20 38 -13 55 -33 17 -32 35 3 35
29 1 61 64 46 93 -14 25 -6 55 44 155 l42 83 17 -85 c17 -91 46 -149 81 -168
17 -9 15 -3 -10 25 -18 20 -37 53 -42 74 -14 51 -13 74 2 42 13 -30 55 -80 76
-93 9 -6 12 -5 7 2 -3 5 0 12 6 15 10 3 7 15 -9 43 -81 143 -86 177 -42 286
l34 83 11 -50 c7 -27 13 -78 13 -112 1 -58 3 -63 23 -60 19 2 22 -5 34 -72 10
-56 19 -80 41 -103 28 -29 28 -29 44 -9 16 19 17 18 29 -22 21 -72 32 -96 47
-109 11 -9 16 -9 22 1 10 15 21 -8 21 -42 0 -32 50 -99 65 -87 9 7 23 -1 53
-30 30 -30 48 -40 71 -40 21 0 30 4 26 11 -4 6 -11 23 -16 37 -8 25 -9 25 -4
-5 3 -24 1 -33 -9 -33 -22 0 -77 51 -91 84 -12 28 -13 28 -19 8 -4 -12 -11
-22 -16 -22 -15 0 -50 52 -50 75 0 12 -5 36 -11 54 -10 29 -12 30 -24 14 -13
-17 -15 -15 -29 19 -9 21 -16 47 -16 58 0 11 -4 20 -9 20 -4 0 -13 15 -18 33
-10 33 -12 31 -28 -19 -4 -13 -8 -14 -21 -3 -25 21 -35 47 -47 127 -9 57 -16
77 -27 77 -11 0 -19 26 -33 105 -9 58 -16 111 -15 117 2 7 30 -21 63 -63 33
-42 68 -86 77 -97 11 -13 23 -61 32 -122 l14 -100 -6 95 c-5 83 -3 93 10 83
20 -17 65 -112 78 -164 5 -24 14 -87 19 -139 l10 -95 -4 85 c-3 68 -1 81 8 66
38 -61 76 -101 107 -114 l35 -14 -51 54 c-57 60 -77 95 -119 208 -34 92 -51
117 -130 200 -81 84 -135 157 -135 181 0 25 2 25 43 -16 19 -19 42 -35 51 -35
9 0 18 -12 22 -27 9 -39 24 -54 47 -51 17 2 23 -6 33 -46 15 -58 47 -97 66
-78 20 20 23 14 20 -32 -6 -66 9 -86 63 -86 58 0 76 -24 68 -91 -6 -52 0 -58
34 -34 20 14 22 13 28 -16 4 -17 9 -28 12 -25 3 2 0 20 -6 39 -9 27 -8 41 4
70 8 20 15 48 15 63 0 26 1 26 19 10 25 -23 39 -14 47 30 8 44 -10 108 -42
152 l-25 32 25 0 c27 0 34 14 14 26 -7 5 -8 3 -3 -6 6 -10 2 -11 -19 -6 -32 8
-33 -3 -3 -52 43 -68 57 -131 37 -162 -9 -13 -14 -11 -34 12 l-24 26 -4 -48
c-3 -26 -16 -65 -29 -86 l-24 -39 -3 35 c-5 69 -34 97 -94 91 -36 -3 -47 24
-40 102 3 36 1 57 -6 57 -6 0 -13 -9 -17 -19 -9 -29 -33 -33 -50 -8 -8 11 -20
47 -26 79 -10 49 -14 56 -23 42 -11 -15 -14 -15 -29 1 -19 18 -21 29 -17 92 3
60 -14 79 -20 23 -6 -55 -25 -59 -57 -11 -26 38 -29 90 -12 173 7 29 17 106
23 172 12 127 25 154 46 89 7 -21 28 -69 47 -107 33 -66 34 -70 22 -120 -7
-28 -20 -71 -31 -95 -10 -24 -17 -46 -15 -48 9 -8 30 30 47 84 l18 58 15 -36
c27 -66 28 -77 7 -139 -12 -34 -19 -64 -17 -66 7 -8 25 20 39 64 l15 43 22
-58 c12 -32 38 -82 57 -112 39 -58 97 -187 109 -239 3 -17 11 -35 17 -38 6 -4
8 1 5 12 -3 11 -11 38 -17 62 -6 23 -20 63 -30 87 -26 61 -9 58 57 -10 40 -42
50 -48 38 -26 -8 16 -42 54 -75 83 -75 66 -123 135 -146 213 -9 33 -23 70 -31
82 -20 29 -44 113 -34 113 5 0 38 -14 75 -31 36 -17 69 -28 74 -25 5 3 22 -9
38 -26 19 -21 23 -29 12 -25 -23 8 -24 -16 -1 -34 9 -8 24 -27 35 -44 10 -16
18 -25 18 -20 0 6 -9 24 -19 42 -13 20 -16 33 -9 35 24 8 -28 73 -142 175 -86
77 -128 122 -147 160 -21 39 -25 55 -16 64 8 8 6 20 -9 45 -13 22 -18 43 -14
59 3 13 2 26 -4 30 -5 3 -13 -9 -18 -26 -4 -18 -13 -34 -19 -36 -20 -7 -23 45
-7 114 21 87 14 192 -20 335 -27 113 -35 177 -15 128 27 -65 78 -265 90 -347
7 -51 16 -93 21 -93 11 0 12 -13 -17 180 -5 32 -3 30 29 -25 25 -44 40 -91 57
-175 23 -113 39 -159 39 -109 0 26 -17 128 -27 164 -4 15 5 10 34 -18 29 -28
43 -51 51 -87 15 -64 38 -120 51 -120 5 0 -2 29 -17 65 -14 36 -23 68 -19 71
3 4 45 -21 92 -55 47 -33 85 -57 85 -52 0 5 -49 50 -110 101 -121 101 -188
183 -254 310 -48 93 -116 278 -116 316 0 44 15 25 37 -49 27 -86 78 -176 153
-264 81 -96 108 -134 125 -172 13 -28 19 -33 40 -28 21 3 29 -1 41 -25 13 -24
20 -29 40 -24 25 7 31 -3 14 -20 -15 -15 13 -37 37 -31 14 4 13 5 -4 6 -27 1
-28 5 -7 41 23 38 12 80 -21 80 -20 0 -25 -5 -25 -25 0 -14 5 -25 12 -25 9 0
9 -3 0 -12 -15 -15 -35 2 -52 42 -14 34 -25 38 -34 14 -8 -20 -31 -4 -39 26
-4 15 0 20 14 20 23 0 26 32 4 50 -9 7 -13 21 -9 34 3 15 -4 30 -26 51 -28 26
-43 64 -20 50 15 -9 12 -1 -15 51 -18 34 -26 42 -31 30 -13 -35 -25 -2 -19 52
7 55 6 56 -10 34 -25 -34 -37 -17 -29 44 5 45 4 54 -9 54 -9 0 -21 -8 -26 -17
-27 -46 -38 52 -16 142 l8 30 -25 -22 c-32 -30 -38 -29 -38 10 1 42 33 113 59
127 30 15 26 40 -14 100 -19 29 -35 56 -35 61 0 5 -13 9 -30 9 -25 0 -30 4
-30 23 0 24 37 67 57 67 6 0 18 11 27 25 14 22 24 25 59 24 25 -2 49 -10 60
-21 10 -10 27 -18 38 -18 16 0 18 4 13 28 -7 24 -6 26 9 13 14 -11 18 -11 22
1 5 12 22 14 79 12 54 -3 77 0 92 12 13 11 15 17 7 20 -20 9 -15 34 6 34 24 0
37 -36 20 -56 -9 -11 -9 -18 -1 -26 19 -19 14 -30 -9 -17 -13 6 -39 8 -64 5
-23 -4 -54 -2 -68 3 -36 14 -34 5 2 -14 17 -8 42 -37 57 -65 25 -46 51 -70 38
-35 -4 10 0 15 15 15 25 0 29 -31 6 -50 -22 -19 -61 1 -86 45 -23 38 -39 45
-39 17 0 -32 -11 -32 -44 2 -31 31 -91 56 -134 56 -42 0 -102 -32 -118 -63
-16 -30 -16 -30 8 -22 12 4 39 9 59 12 55 7 108 -45 148 -145 17 -42 40 -94
51 -114 16 -30 17 -36 5 -32 -27 11 -16 -22 23 -67 53 -60 68 -89 52 -99 -10
-6 -11 -22 -2 -72 10 -61 11 -61 7 -10 -2 29 0 52 5 52 16 0 11 43 -8 72 -9
14 -32 45 -51 68 l-33 41 26 -7 c32 -8 33 0 2 37 -13 15 -36 59 -50 96 -14 37
-36 86 -49 108 -40 71 -114 103 -170 74 -21 -11 -21 -10 2 15 37 40 94 52 148
31 24 -9 56 -30 72 -46 33 -33 46 -36 59 -13 7 13 13 9 36 -20 20 -26 35 -36
55 -36 34 0 54 21 49 52 -2 18 -10 23 -31 23 -20 1 -34 10 -47 30 -26 39 -25
41 12 49 20 4 39 1 54 -9 13 -8 26 -15 29 -15 9 0 5 39 -5 45 -6 4 -5 14 1 29
15 32 -4 68 -34 64 -17 -2 -22 -10 -22 -33 -1 -28 -3 -30 -40 -30 -33 0 -39 3
-37 18 2 9 -2 17 -9 17 -8 0 -8 4 1 15 7 9 21 13 35 9 30 -7 37 6 21 38 -8 16
-10 31 -5 39 5 8 9 34 9 58 0 42 -1 43 -18 28 -10 -10 -35 -17 -54 -17 -32 0
-37 3 -43 31 l-7 30 -26 -40 c-15 -23 -30 -41 -34 -41 -4 0 -12 15 -19 34
l-12 34 -21 -27 c-50 -62 -50 -61 -32 -61 9 0 16 8 16 19 0 10 7 24 16 32 13
10 17 10 25 -2 5 -8 9 -21 9 -31 0 -12 6 -15 23 -11 21 6 21 5 -4 -23 -32 -35
-49 -67 -49 -90 0 -25 19 -5 25 26 2 13 19 38 36 56 19 19 32 43 32 58 0 14 3
26 8 26 5 0 9 -9 9 -19 0 -13 6 -18 18 -16 9 2 34 6 55 9 35 5 37 3 37 -24 0
-16 -7 -33 -16 -38 -14 -8 -14 -10 0 -21 32 -26 19 -41 -29 -36 -40 5 -45 3
-45 -13 0 -11 10 -26 23 -35 l22 -15 -28 -13 c-21 -9 -30 -10 -39 -1 -16 16
-29 15 -22 -2 4 -11 0 -13 -15 -9 -17 4 -21 1 -21 -21 0 -31 -14 -34 -33 -5
-8 11 -21 19 -28 18 -8 -2 -25 1 -38 5 -17 6 -31 2 -53 -14 -28 -21 -58 -21
-58 -1 0 5 31 37 70 71 38 34 67 66 64 71 -5 9 -60 -36 -129 -108 -57 -59 -59
-42 -9 68 22 50 33 87 29 99 -10 31 -25 23 -23 -12 0 -18 -10 -55 -24 -83 -14
-27 -28 -63 -32 -79 -7 -27 -8 -27 -26 -11 -10 9 -24 14 -30 10 -13 -8 -77 12
-111 36 -14 10 -29 16 -32 13 -3 -3 -8 9 -12 26 -5 22 -23 42 -61 71 -30 22
-54 46 -54 54 0 18 8 18 40 0 42 -24 50 -19 50 29 0 36 5 48 27 66 15 11 33
18 40 16 13 -5 18 15 7 27 -7 6 -20 -3 -66 -46 -25 -23 -29 -32 -23 -58 7 -30
6 -31 -16 -25 -13 5 -36 10 -51 13 -39 7 -37 -22 3 -56 102 -86 117 -113 85
-156 -12 -16 -16 -17 -29 -6 -13 10 -21 10 -44 -3 -74 -40 -72 -40 -88 -26
-11 9 -14 22 -10 37 7 29 -5 29 -65 2 -59 -26 -90 -57 -90 -86 0 -14 -5 -33
-11 -44 -10 -20 -11 -20 -24 -2 -13 17 -15 17 -42 -9 -16 -16 -33 -28 -37 -28
-14 0 6 65 26 85 l21 20 -8 -20 c-4 -11 -9 -27 -12 -35 -3 -8 7 3 22 25 45 64
68 87 108 105 22 10 35 20 30 22 -11 6 -52 3 -84 -6 -17 -5 -40 -2 -65 9 l-38
16 29 24 c35 28 48 30 65 10 15 -18 31 -10 23 10 -10 27 27 16 58 -17 23 -26
32 -30 38 -19 6 9 11 10 15 2 4 -6 18 -11 31 -11 13 0 27 -5 30 -11 5 -7 13
-4 26 7 13 11 28 15 49 11 17 -4 30 -2 30 3 0 17 -52 32 -88 26 -49 -7 -101
16 -102 47 0 4 11 7 24 7 13 0 29 7 37 16 11 13 9 14 -15 8 -20 -5 -33 -1 -50
15 -29 27 -81 43 -115 34 -26 -6 -26 -6 -8 15 18 20 18 20 -2 27 -12 3 -28 19
-36 35 l-15 29 45 -4 c49 -5 56 2 25 30 -24 21 -26 37 -5 29 8 -3 28 -2 43 4
37 13 57 1 82 -49 19 -37 49 -57 36 -24 -7 19 14 67 28 62 6 -2 18 -17 26 -35
19 -40 29 -40 37 -2 3 17 9 33 13 35 14 9 32 -25 26 -48 -9 -36 5 -40 36 -10
17 17 28 22 28 13 0 -8 11 1 25 20 27 37 33 80 11 80 -8 0 -17 6 -19 13 -4 9
-6 9 -6 -1 -1 -7 6 -15 14 -18 8 -4 15 -14 15 -24 0 -17 -29 -50 -45 -50 -5 0
-17 -7 -27 -17 -17 -15 -18 -15 -18 13 0 17 -5 35 -11 41 -13 13 21 107 52
139 26 28 46 30 77 8 13 -9 26 -14 29 -11 3 3 -9 15 -27 25 -33 21 -30 28 18
42 l27 8 -30 1 c-57 2 -118 -59 -152 -148 -16 -44 -29 -61 -45 -61 -5 0 -8 28
-8 63 0 52 5 71 29 109 36 57 47 64 55 35 6 -21 7 -20 21 11 15 34 19 37 73
46 27 5 32 3 32 -14 0 -13 7 -20 20 -20 30 0 60 -36 60 -72 0 -32 0 -32 -16
-10 -8 12 -24 22 -36 22 -17 0 -18 -3 -8 -15 7 -8 16 -12 21 -9 5 3 14 -7 19
-21 14 -37 30 -21 30 30 0 35 -5 48 -26 64 -15 12 -33 21 -40 21 -8 0 -14 11
-14 25 0 22 -2 24 -26 15 -14 -6 -36 -10 -49 -10 -13 0 -31 -10 -40 -22 -11
-17 -18 -20 -23 -10 -10 15 -66 -50 -88 -103 -10 -24 -19 -33 -29 -29 -20 8
-11 40 21 75 15 15 24 37 24 56 0 35 -15 52 -24 28 -12 -32 -28 -15 -24 25 2
27 0 39 -8 36 -13 -5 -13 82 0 102 6 10 11 10 23 1 12 -10 16 -10 24 2 5 8 8
21 8 29 -1 11 -3 10 -6 -2 -7 -26 -22 -22 -35 10 l-11 27 -7 -33 c-11 -50 -27
-60 -41 -29 -16 34 -37 34 -45 0 -9 -36 7 -57 45 -61 34 -3 35 -8 16 -55 -6
-14 -4 -16 10 -10 16 6 17 2 12 -36 -4 -34 -3 -41 9 -37 8 3 21 9 29 12 25 10
18 -34 -10 -58 -14 -12 -25 -28 -25 -35 0 -8 -7 -25 -16 -38 -21 -32 -15 -70
11 -70 11 0 20 7 21 15 1 10 -1 10 -3 2 -6 -17 -27 -10 -31 11 -4 22 24 33 43
17 29 -24 13 -99 -19 -87 -9 4 -19 -1 -25 -10 -7 -14 -11 -12 -25 14 -22 43
-63 73 -100 73 -18 0 -41 6 -52 14 -20 15 -15 20 31 29 16 3 12 7 -19 23 -43
21 -64 51 -28 40 36 -12 35 14 -2 49 -37 34 -48 62 -21 51 21 -8 19 8 -5 29
-24 22 -29 65 -5 45 19 -16 19 -9 -2 35 -19 39 -12 55 14 34 15 -13 16 -12 8
6 -4 11 -10 36 -13 55 -4 34 -4 35 15 18 27 -25 29 -23 25 20 -2 25 4 45 17
61 18 24 19 24 25 3 7 -20 8 -20 36 -4 25 14 35 15 74 4 64 -17 91 -14 36 4
-27 9 -64 13 -92 10 -40 -4 -48 -2 -48 11 0 13 -7 10 -30 -12 -20 -19 -30 -39
-30 -59 -1 -29 -2 -30 -15 -12 -14 18 -15 18 -25 -8 -5 -15 -10 -36 -10 -47 0
-30 -17 -22 -24 12 -10 49 -62 150 -100 196 -45 52 -126 93 -182 93 -35 0 -47
-5 -68 -31 -14 -17 -26 -34 -26 -37 -1 -4 -5 -40 -9 -80 -10 -80 -36 -122 -75
-122 -25 0 -48 33 -39 55 3 10 -4 30 -17 48 -22 30 -23 33 -11 96 26 134 26
138 -7 171 -39 38 -83 40 -116 5z m114 -15 c27 -27 26 -75 -2 -94 -41 -29 -98
-18 -98 20 0 24 42 63 48 44 2 -5 10 -10 18 -10 8 0 11 6 8 15 -4 8 -15 15
-26 15 -17 0 -18 3 -8 15 17 20 36 19 60 -5z m-106 -29 c3 -4 -6 -6 -19 -3
-14 2 -25 6 -25 8 0 8 39 4 44 -5z m-218 -105 c8 -14 20 -56 26 -93 14 -93 32
-133 68 -146 36 -14 39 -27 6 -27 -13 0 -37 13 -54 28 -25 23 -31 39 -36 88
-14 126 -31 154 -95 154 -17 0 -31 5 -31 10 0 6 22 10 50 10 42 0 52 -4 66
-24z m320 -11 c-7 -20 -70 -20 -86 0 -14 17 -5 23 50 27 37 3 45 -3 36 -27z
m314 25 c0 -5 -14 -10 -31 -10 -63 0 -81 -27 -94 -144 -4 -33 -13 -69 -21 -81
-15 -23 -54 -45 -79 -45 -25 0 -17 15 15 27 36 13 54 53 68 146 15 97 30 117
92 117 28 0 50 -4 50 -10z m-665 -71 c0 -15 -7 -25 -19 -27 -15 -3 -18 1 -14
22 4 18 1 26 -8 26 -15 0 -18 12 -7 23 12 13 48 -20 48 -44z m-77 10 c2 -13 8
-30 14 -36 15 -18 2 -43 -22 -43 -25 0 -37 25 -20 45 10 13 8 15 -14 15 -32 0
-34 23 -3 38 30 14 41 10 45 -19z m712 21 c0 -5 -6 -10 -14 -10 -9 0 -12 -8
-8 -25 3 -18 0 -25 -12 -25 -22 0 -30 24 -16 49 11 21 50 30 50 11z m65 -2
c33 -15 33 -38 -1 -38 -22 0 -24 -2 -14 -15 17 -20 5 -45 -20 -45 -24 0 -38
26 -21 43 6 6 11 21 11 32 0 19 7 35 16 35 2 0 15 -5 29 -12z m-358 -40 c-2
-26 -5 -28 -44 -28 -41 0 -43 2 -43 29 0 27 2 28 44 27 42 -1 45 -3 43 -28z
m-495 -15 c23 -21 25 -91 3 -100 -21 -7 -32 4 -17 19 21 21 13 29 -23 22 -30
-5 -35 -4 -35 13 0 23 27 63 42 63 6 0 20 -7 30 -17z m942 -5 c9 -12 16 -31
16 -41 0 -17 -5 -18 -35 -13 -36 7 -44 -1 -23 -22 15 -15 4 -26 -17 -19 -21 9
-20 75 2 99 21 24 39 23 57 -4z m-781 -35 c3 -10 8 -31 12 -48 9 -41 51 -94
80 -101 24 -6 36 -34 15 -34 -5 0 -10 5 -10 10 0 6 -10 8 -24 4 -16 -4 -25 -1
-29 10 -4 10 -13 13 -23 9 -13 -5 -15 -2 -9 15 5 18 2 22 -16 22 -18 0 -20 3
-11 12 18 18 15 28 -8 28 -24 0 -26 13 -4 31 14 12 14 14 -1 25 -9 7 -14 17
-10 23 10 17 33 13 38 -6z m355 -5 c6 -6 12 -20 11 -32 0 -19 -1 -19 -11 4
l-10 25 -11 -22 c-5 -13 -13 -23 -17 -23 -4 0 -11 10 -15 23 l-7 22 -7 -25
c-4 -14 -13 -25 -21 -25 -8 0 -17 11 -21 25 l-6 25 -12 -28 c-13 -32 -31 -27
-31 8 0 19 7 26 28 31 15 3 32 7 37 9 16 6 79 -6 93 -17z m247 11 c4 -6 -1
-16 -10 -23 -15 -11 -15 -13 -1 -25 22 -18 20 -31 -4 -31 -23 0 -26 -10 -8
-28 9 -9 7 -12 -11 -12 -18 0 -21 -4 -16 -22 6 -17 4 -20 -9 -15 -10 4 -19 1
-23 -9 -4 -11 -13 -14 -29 -10 -14 4 -24 2 -24 -4 0 -5 -4 -10 -10 -10 -21 0
-9 28 15 34 29 7 71 60 80 101 13 58 16 65 30 65 8 0 17 -5 20 -11z m-685 -34
c0 -9 -7 -18 -16 -22 -18 -7 -39 11 -30 26 11 17 46 13 46 -4z m775 -5 c0 -22
-39 -19 -43 3 -3 15 1 18 20 15 12 -2 23 -10 23 -18z m-925 -28 c0 -27 -15
-52 -32 -52 -13 0 -9 55 4 68 19 19 28 14 28 -16z m1058 16 c13 -13 17 -68 4
-68 -17 0 -32 25 -32 52 0 30 9 35 28 16z m-878 -17 c0 -11 -11 -33 -24 -48
-19 -22 -27 -25 -37 -16 -9 9 -7 20 11 47 24 39 50 48 50 17z m723 -19 c15
-26 17 -36 8 -45 -10 -9 -18 -6 -37 16 -13 15 -24 37 -24 48 0 31 31 20 53
-19z m-865 -4 c-4 -27 -28 -36 -28 -10 0 20 8 32 22 32 5 0 8 -10 6 -22z m980
-6 c2 -15 -2 -22 -12 -22 -11 0 -16 9 -16 26 0 31 23 28 28 -4z m-914 9 c4 -5
2 -21 -4 -36 -12 -32 -47 -31 -42 0 7 36 34 57 46 36z m396 -6 c0 -8 -4 -15
-9 -15 -13 0 -22 16 -14 24 11 11 23 6 23 -9z m52 0 c0 -5 -5 -11 -11 -13 -6
-2 -11 4 -11 13 0 9 5 15 11 13 6 -2 11 -8 11 -13z m415 -15 c6 -13 10 -28 7
-32 -11 -17 -35 -7 -44 18 -18 47 14 59 37 14z m-522 10 c-3 -5 -11 -10 -16
-10 -6 0 -7 5 -4 10 3 6 11 10 16 10 6 0 7 -4 4 -10z m160 0 c3 -5 2 -10 -4
-10 -5 0 -13 5 -16 10 -3 6 -2 10 4 10 5 0 13 -4 16 -10z m-137 -37 c-2 -14
-8 -28 -14 -30 -17 -6 -26 27 -13 43 18 22 31 16 27 -13z m126 4 c8 -12 7 -20
-1 -28 -16 -16 -33 -2 -33 27 0 28 17 28 34 1z m-64 -17 c0 -20 -5 -30 -15
-30 -10 0 -15 10 -15 30 0 20 5 30 15 30 10 0 15 -10 15 -30z m-359 -2 c4 -36
-24 -83 -42 -72 -12 7 -11 41 1 65 12 21 39 26 41 7z m239 -2 c0 -8 -4 -18
-10 -21 -5 -3 -10 3 -10 14 0 12 5 21 10 21 6 0 10 -6 10 -14z m230 -7 c0 -11
-4 -17 -10 -14 -5 3 -10 13 -10 21 0 8 5 14 10 14 6 0 10 -9 10 -21z m264 -10
c11 -33 2 -61 -18 -53 -17 6 -35 53 -28 72 7 21 36 9 46 -19z m-954 -72 c0
-56 6 -115 16 -146 12 -41 13 -56 3 -67 -36 -43 -54 15 -54 176 0 97 6 130 25
130 6 0 10 -36 10 -93z m57 -34 c5 -165 -24 -183 -41 -25 -9 82 1 154 22 150
12 -2 15 -26 19 -125z m246 97 c23 0 22 -42 -2 -71 l-19 -24 -7 28 c-7 27 -8
27 -26 11 -15 -14 -19 -14 -20 -3 -2 25 3 54 13 72 9 17 11 17 27 3 10 -9 25
-16 34 -16z m596 -16 c12 -43 4 -59 -20 -38 -18 16 -19 16 -19 -4 0 -31 -16
-36 -34 -10 -22 32 -21 68 3 68 10 0 24 7 31 15 16 19 27 9 39 -31z m213 4 c5
-124 -11 -226 -32 -213 -7 4 -9 51 -6 128 3 67 5 123 5 125 1 1 8 2 16 2 11 0
16 -12 17 -42z m51 1 c9 -34 4 -184 -9 -246 -7 -35 -24 -42 -43 -19 -10 11 -9
26 3 67 10 31 16 91 16 147 0 69 3 93 12 90 7 -3 16 -20 21 -39z m-1043 -39
c-6 -19 -10 -52 -10 -72 0 -42 -12 -55 -30 -33 -9 10 -11 37 -8 84 6 85 14
100 39 74 16 -15 17 -24 9 -53z m938 -19 c3 -48 1 -75 -8 -86 -18 -22 -30 -9
-30 34 0 21 -5 52 -11 70 -10 27 -8 35 7 52 26 28 36 11 42 -70z m-559 65 c9
-11 10 -20 1 -36 -16 -29 -34 -20 -38 18 -4 35 16 44 37 18z m169 -18 c-4 -38
-22 -47 -38 -18 -9 16 -8 25 1 36 21 26 41 17 37 -18z m-68 11 c0 -4 -8 -17
-18 -29 l-19 -23 -16 24 c-23 32 -22 34 18 34 19 0 35 -3 35 -6z m804 -5 c9
-23 7 -44 -4 -44 -13 0 -32 38 -25 50 9 15 22 12 29 -6z m-973 -47 c-8 -8 -11
-4 -11 14 0 33 14 47 18 19 2 -12 -1 -27 -7 -33z m279 17 c0 -14 -4 -22 -10
-19 -5 3 -10 17 -10 31 0 14 4 22 10 19 6 -3 10 -17 10 -31z m-340 2 c0 -34
-10 -56 -25 -56 -19 0 -26 26 -15 55 12 33 40 33 40 1z m430 -1 c11 -29 4 -55
-15 -55 -15 0 -25 22 -25 56 0 32 28 32 40 -1z m-266 -11 c9 -23 -4 -64 -20
-64 -21 0 -28 27 -16 56 13 28 27 31 36 8z m98 -8 c12 -29 5 -56 -16 -56 -16
0 -29 41 -20 64 9 23 23 20 36 -8z m-470 -30 c-2 -15 -8 -39 -14 -54 l-12 -27
-4 24 c-6 36 7 93 21 88 7 -2 11 -16 9 -31z m832 12 c9 -36 7 -93 -3 -82 -13
13 -31 85 -25 96 9 15 22 8 28 -14z m-784 -32 c0 -41 -19 -74 -33 -59 -17 16
2 103 23 103 5 0 10 -20 10 -44z m266 18 c8 -31 -12 -57 -26 -34 -5 8 -10 25
-10 38 0 31 28 28 36 -4z m214 4 c0 -13 -5 -30 -10 -38 -14 -23 -34 3 -26 34
8 32 36 35 36 4z m264 -20 c5 -20 6 -44 2 -54 -7 -18 -8 -18 -22 0 -18 25 -19
99 -1 94 6 -3 16 -21 21 -40z m-686 2 c7 -43 -8 -92 -26 -88 -22 4 -27 39 -12
84 13 38 33 41 38 4z m631 -1 c15 -45 14 -79 -4 -86 -21 -8 -26 -1 -32 46 -9
70 16 98 36 40z m-581 -51 c-2 -48 -7 -63 -18 -63 -19 0 -25 60 -11 98 19 48
32 31 29 -35z m522 42 c16 -30 9 -105 -10 -105 -11 0 -16 15 -18 63 -3 64 8
80 28 42z m-461 -80 c0 -25 -4 -52 -9 -60 -9 -13 -12 -12 -25 4 -20 26 -19 68
1 114 16 36 17 37 24 12 5 -14 8 -45 9 -70z m171 50 c0 -22 -4 -40 -10 -40
-11 0 -14 63 -3 73 11 12 13 8 13 -33z m50 -6 c0 -19 -4 -34 -10 -34 -5 0 -10
18 -10 41 0 24 4 38 10 34 6 -3 10 -22 10 -41z m186 11 c18 -44 18 -86 -1
-111 -13 -16 -16 -17 -25 -4 -15 23 -9 150 7 150 2 0 11 -16 19 -35z m-351
-15 c-5 -8 -11 -8 -17 -2 -6 6 -7 16 -3 22 5 8 11 8 17 2 6 -6 7 -16 3 -22z
m75 -11 c0 -28 -13 -39 -25 -19 -8 13 5 61 16 54 5 -3 9 -18 9 -35z m136 -16
c-3 -7 -10 -13 -16 -13 -11 0 -14 53 -3 64 9 9 25 -34 19 -51z m69 27 c-5 -8
-11 -8 -17 -2 -6 6 -7 16 -3 22 5 8 11 8 17 2 6 -6 7 -16 3 -22z m-242 -22 c6
-20 -4 -48 -18 -48 -18 0 -27 30 -14 46 14 17 26 18 32 2z m215 -5 c11 -22 5
-43 -13 -43 -14 0 -24 28 -18 48 6 17 21 15 31 -5z m-742 -143 c-18 -76 -20
-121 -7 -135 5 -6 11 -30 14 -55 8 -69 25 -137 40 -162 8 -13 17 -35 21 -50 3
-15 13 -34 22 -42 10 -11 12 -16 3 -16 -7 0 -21 -8 -31 -17 -17 -15 -19 -15
-33 3 -8 10 -15 29 -15 41 0 35 -43 57 -111 57 -43 1 -59 5 -59 15 0 8 -7 19
-16 26 -15 10 -11 14 24 28 25 10 53 14 72 11 28 -6 30 -4 30 22 0 16 9 43 20
59 27 41 26 65 -4 65 -19 0 -22 4 -18 25 4 23 1 25 -34 24 -71 0 -107 6 -112
19 -5 15 56 42 97 42 37 0 67 26 51 45 -8 10 -5 20 15 39 14 14 25 37 26 53
l1 28 10 -29 c8 -22 7 -45 -6 -96z m149 -18 c-4 -25 -10 -40 -16 -36 -11 6 -2
150 10 169 9 15 14 -83 6 -133z m38 43 c-2 -112 -12 -180 -24 -168 -14 14 1
265 15 260 7 -3 10 -36 9 -92z m42 73 c2 -13 6 -34 8 -48 3 -14 5 -7 6 18 1
43 10 52 30 29 18 -22 24 -147 12 -242 -13 -98 -24 -125 -48 -125 -12 0 -14 7
-9 33 11 52 26 189 25 227 -1 19 -7 -12 -14 -70 -8 -58 -18 -116 -23 -130 -9
-23 -9 -23 -19 -5 -8 14 -8 67 0 178 10 147 20 188 32 135z m809 -100 c4 -68
9 -139 12 -158 3 -22 0 -42 -9 -55 -14 -18 -15 -15 -26 35 -6 30 -14 87 -17
125 -4 39 -9 64 -11 57 -5 -13 11 -182 23 -239 5 -26 3 -33 -9 -33 -23 0 -33
24 -46 107 -20 132 -8 259 27 271 8 2 12 -10 13 -40 1 -24 3 -32 6 -18 17 108
29 91 37 -52z m40 -3 c7 -122 1 -171 -15 -128 -11 29 -23 229 -15 242 17 27
24 3 30 -114z m31 41 c7 -77 -3 -123 -16 -76 -10 37 -10 162 0 156 5 -3 12
-39 16 -80z m171 -1 c15 -10 16 -16 6 -28 -18 -21 10 -47 49 -47 41 0 102 -27
97 -42 -5 -13 -41 -19 -112 -19 -35 1 -38 -1 -34 -24 4 -20 1 -25 -14 -25 -29
0 -33 -28 -9 -60 11 -16 21 -43 21 -59 0 -29 2 -30 43 -29 24 0 56 -6 71 -14
24 -13 26 -16 12 -27 -9 -8 -16 -19 -16 -25 0 -7 -22 -11 -59 -12 -65 0 -114
-24 -109 -52 1 -9 -4 -27 -12 -38 -12 -20 -15 -20 -40 -6 -27 16 -27 17 -13
52 9 19 23 48 31 65 16 31 30 87 39 165 3 25 10 51 15 58 12 14 2 126 -13 155
-6 10 -7 37 -4 60 l7 41 13 -38 c7 -21 21 -43 31 -51z m-726 45 c0 -20 -5 -30
-15 -30 -18 0 -20 31 -3 48 17 17 18 16 18 -18z m78 8 c-2 -13 -7 -23 -13 -23
-5 0 -11 10 -13 23 -2 15 2 22 13 22 11 0 15 -7 13 -22z m82 -19 c0 -11 -7
-19 -15 -19 -10 0 -15 10 -15 31 0 27 2 30 15 19 8 -7 15 -21 15 -31z m-117
11 c6 -24 -2 -60 -13 -60 -5 0 -12 9 -15 20 -7 22 2 60 15 60 4 0 10 -9 13
-20z m73 -34 c-3 -14 -10 -26 -15 -26 -14 0 -22 29 -15 57 6 22 8 23 22 10 9
-10 12 -24 8 -41z m-336 -99 c0 -88 -13 -218 -26 -256 -4 -12 -7 -12 -21 1
-14 15 -14 22 1 82 10 43 16 109 16 193 1 116 2 126 15 103 10 -17 14 -57 15
-123z m619 -190 c12 -43 12 -50 -2 -65 -20 -19 -22 -15 -36 85 -15 97 -14 243
2 284 11 31 13 20 17 -111 3 -80 12 -167 19 -193z m-583 276 c9 -36 -3 -289
-16 -335 -6 -21 -16 -38 -22 -38 -6 0 -7 7 -2 18 4 9 9 99 12 200 4 170 13
218 28 155z m527 -150 c2 -98 7 -188 12 -200 4 -15 3 -23 -3 -23 -6 0 -16 17
-22 38 -13 46 -25 299 -16 335 15 63 25 15 29 -150z m-487 110 c8 -29 -3 -280
-12 -295 -15 -24 -20 19 -16 165 4 148 13 191 28 130z m145 17 c23 -13 26 -68
5 -76 -10 -4 -12 -16 -9 -43 6 -45 -12 -65 -26 -29 -7 17 -10 19 -10 6 -1 -27
-31 -22 -31 5 -1 20 -2 20 -11 5 -5 -10 -15 -18 -20 -18 -14 0 -1 61 17 79 11
13 14 12 21 -7 l8 -22 28 25 c15 14 27 31 27 38 0 7 -9 1 -19 -12 -22 -28 -41
-21 -41 17 -1 26 -1 26 -17 -8 -15 -31 -17 -32 -20 -13 -10 53 44 81 98 53z
m79 -5 c0 -8 -7 -15 -15 -15 -8 0 -15 7 -15 15 0 8 7 15 15 15 8 0 15 -7 15
-15z m140 -6 c6 -11 10 -30 7 -42 -3 -19 -5 -18 -20 13 -16 34 -16 34 -17 8 0
-38 -19 -45 -41 -17 -10 13 -19 19 -19 12 0 -7 12 -24 27 -38 l28 -25 8 22 c7
19 10 20 21 7 18 -18 31 -79 17 -79 -5 0 -15 8 -20 18 -9 15 -10 15 -11 -5 0
-27 -29 -32 -31 -5 -1 16 -2 16 -6 0 -2 -10 -11 -18 -20 -18 -12 0 -15 8 -10
39 3 29 1 41 -9 45 -20 8 -18 63 4 75 31 18 80 13 92 -10z m82 -136 c4 -146 0
-190 -16 -165 -9 15 -20 266 -12 295 15 61 24 18 28 -130z m-827 118 c-4 -20
-1 -34 10 -45 9 -9 13 -16 8 -16 -5 0 -14 5 -21 12 -20 20 -14 -1 10 -32 17
-23 19 -33 10 -42 -9 -9 -16 -7 -32 7 -21 19 -27 60 -10 70 6 3 10 19 10 34 0
25 7 41 17 41 3 0 2 -13 -2 -29z m53 -3 c-2 -21 -9 -34 -19 -36 -24 -4 -31 25
-12 48 25 29 35 25 31 -12z m1110 5 l24 -28 -8 29 c-5 21 -4 27 5 22 6 -4 11
-18 11 -32 0 -13 5 -33 11 -43 24 -37 -16 -100 -45 -71 -7 7 -3 19 12 40 26
34 29 48 7 30 -9 -7 -18 -10 -22 -6 -3 3 -1 6 5 6 7 0 12 4 12 8 0 5 -10 8
-22 8 -19 -1 -24 5 -26 32 -4 39 5 40 36 5z m-1086 -85 c-6 -22 -7 -22 -14 7
-6 26 -7 26 -3 -7 4 -40 -9 -52 -20 -18 -3 10 2 34 11 52 16 31 17 31 25 11 4
-11 5 -32 1 -45z m1053 32 c9 -18 13 -40 9 -55 -9 -37 -23 -20 -19 23 4 33 3
34 -3 7 -7 -28 -8 -29 -14 -7 -6 20 0 62 8 62 2 0 10 -13 19 -30z m-1025 -124
c0 -22 -5 -48 -10 -56 -17 -27 -42 51 -29 89 15 44 39 23 39 -33z m1009 33 c8
-24 7 -39 -5 -67 l-16 -37 -15 34 c-11 26 -11 40 -3 67 14 42 25 43 39 3z
m-1104 -5 c16 -6 50 -62 43 -70 -7 -6 -48 35 -49 49 0 7 -4 3 -9 -8 -8 -18 -9
-17 -9 8 -1 29 0 30 24 21z m1185 -19 c0 -14 -4 -25 -10 -25 -5 0 -7 8 -4 18
3 9 -2 5 -11 -10 -8 -16 -22 -28 -31 -28 -13 0 -13 3 1 29 13 27 27 38 48 40
4 1 7 -10 7 -24z m-745 -54 c-19 -58 -28 -67 -19 -18 3 17 6 39 6 47 -1 30 8
44 19 33 8 -8 6 -26 -6 -62z m293 30 c-1 -15 2 -33 6 -40 4 -6 3 -11 -3 -11
-12 0 -34 66 -26 80 11 17 24 1 23 -29z m-222 -59 c17 -46 13 -68 -5 -33 -15
27 -30 109 -22 117 3 3 7 -5 9 -18 1 -12 10 -42 18 -66z m163 33 c-9 -49 -27
-90 -36 -81 -3 3 2 23 11 46 9 22 16 52 16 66 0 14 4 23 9 20 5 -3 5 -25 0
-51z m-530 -50 c1 -16 -4 -37 -9 -45 -8 -13 -11 -12 -24 5 -19 24 -20 55 -4
90 l12 26 13 -23 c7 -13 12 -36 12 -53z m346 -20 c11 -41 -7 -23 -22 23 l-12
37 5 -45 c6 -42 5 -44 -10 -25 -19 25 -19 28 0 73 l17 37 7 -35 c4 -19 11 -48
15 -65z m225 50 c10 -29 9 -38 -5 -57 -16 -22 -17 -22 -11 22 5 41 5 42 -5 15
-6 -16 -13 -36 -15 -44 -2 -8 -7 -11 -10 -8 -8 8 19 116 27 111 4 -2 13 -20
19 -39z m346 -36 c-3 -13 -10 -31 -16 -39 -25 -37 -42 61 -17 100 12 20 12 19
26 -9 7 -16 11 -40 7 -52z m-1002 12 c-6 -6 -67 34 -72 47 -2 7 14 1 36 -15
22 -15 38 -30 36 -32z m1110 44 c-6 -15 -35 -35 -51 -35 -6 0 46 48 54 50 1 0
0 -7 -3 -15z m-1120 -56 c28 -13 43 -39 22 -39 -7 0 -19 7 -26 15 -15 19 -23
14 -14 -9 3 -9 16 -16 28 -16 11 0 28 -5 36 -10 12 -8 9 -10 -13 -10 -40 0
-63 15 -75 50 -12 34 -2 39 42 19z m145 -91 l-12 -22 -18 23 c-22 27 -23 39
-8 78 l12 28 19 -42 c15 -35 17 -47 7 -65z m817 56 c4 -21 0 -37 -14 -54 l-19
-24 -12 22 c-9 17 -8 30 5 62 18 44 30 42 40 -6z m142 16 c-12 -35 -35 -50
-75 -50 -22 0 -25 2 -13 10 8 5 25 10 36 10 12 0 25 7 28 16 9 23 1 28 -14 9
-14 -17 -40 -20 -40 -5 0 12 49 39 72 40 15 0 15 -4 6 -30z m-924 -29 c-4 -16
-1 -37 6 -48 9 -15 10 -12 6 20 -4 34 -3 37 10 26 9 -7 14 -25 12 -43 -2 -26
-7 -31 -28 -31 -23 0 -25 4 -26 50 -1 55 3 68 16 60 5 -3 7 -19 4 -34z m216 2
c17 -6 30 -17 30 -25 0 -10 -2 -10 -8 -1 -12 19 -61 4 -94 -29 -10 -10 -24
-18 -30 -18 -7 0 -2 10 12 21 l25 21 -43 -5 c-34 -4 -41 -3 -32 8 15 18 63 26
72 12 5 -8 12 1 20 22 7 18 14 27 16 19 1 -8 16 -19 32 -25z m338 -16 c6 9 17
10 45 2 50 -14 47 -28 -5 -22 -29 4 -39 3 -34 -5 4 -7 14 -12 22 -12 8 0 14
-4 14 -10 0 -16 -18 -12 -38 8 -33 33 -82 48 -94 29 -6 -9 -8 -9 -8 1 0 8 14
19 30 25 17 6 30 18 30 27 1 8 8 -1 16 -20 10 -22 18 -30 22 -23z m168 -9 c-1
-49 -3 -53 -26 -53 -35 0 -40 45 -8 84 13 16 26 27 29 25 3 -2 5 -27 5 -56z
m-306 -16 c19 -15 21 -24 16 -58 -10 -58 -29 -79 -56 -64 -17 9 -29 9 -48 0
-32 -14 -47 2 -57 63 -6 35 -4 43 15 59 14 11 39 18 65 18 26 0 51 -7 65 -18z
m-520 -12 c11 -7 5 -10 -25 -11 -39 -1 -39 -1 -11 -9 19 -6 37 -5 50 2 19 10
20 10 7 -5 -25 -31 -111 -11 -111 25 0 11 72 10 90 -2z m1000 3 c0 -3 -7 -15
-17 -25 -20 -23 -76 -24 -94 -1 -13 15 -12 15 7 5 13 -7 31 -8 50 -2 28 8 28
8 -11 9 -30 1 -36 4 -25 11 17 11 90 14 90 3z m-671 -44 c19 -21 47 -78 40
-82 -164 -98 -279 -139 -344 -123 -22 6 -85 84 -85 106 0 4 24 5 53 2 59 -4
98 10 212 77 80 47 97 49 124 20z m380 -23 c110 -64 153 -79 211 -74 28 3 50
2 50 -2 0 -22 -63 -100 -85 -106 -65 -16 -180 25 -344 123 -7 4 21 61 40 82
28 30 42 27 128 -23z m-644 15 c3 -5 -10 -15 -30 -22 -21 -8 -30 -16 -23 -20
6 -4 29 4 50 18 43 29 50 28 37 -5 -10 -28 -53 -45 -91 -37 -38 9 -44 24 -17
43 42 30 65 37 74 23z m836 -13 c46 -26 48 -35 12 -49 -37 -14 -81 -2 -100 27
-23 36 -9 41 35 11 21 -14 44 -22 50 -18 7 4 -2 12 -23 20 -20 7 -33 17 -30
22 8 13 12 12 56 -13z m-2076 2 c-3 -5 -11 -10 -16 -10 -6 0 -7 5 -4 10 3 6
11 10 16 10 6 0 7 -4 4 -10z m3280 0 c3 -5 1 -10 -4 -10 -6 0 -11 5 -11 10 0
6 2 10 4 10 3 0 8 -4 11 -10z m-980 -30 c-3 -5 -15 -10 -25 -10 -10 0 -22 5
-25 10 -4 6 7 10 25 10 18 0 29 -4 25 -10z m-1705 -51 c93 -87 268 -156 443
-174 42 -5 57 -10 57 -22 0 -13 -10 -15 -65 -9 -172 18 -341 83 -442 172 -52
44 -53 45 -92 33 -36 -11 -40 -16 -46 -52 -9 -49 -77 -121 -124 -132 -30 -6
-71 -50 -71 -75 0 -7 16 -31 36 -53 106 -117 137 -339 80 -573 -18 -74 -26
-131 -24 -170 l3 -58 41 -8 c48 -10 98 -55 114 -104 l12 -34 373 0 c247 0 376
-4 380 -10 5 -7 -113 -10 -371 -10 l-378 1 -12 -41 c-22 -75 -46 -97 -127
-114 -22 -5 -26 -11 -23 -29 3 -12 8 -56 11 -97 19 -228 111 -503 223 -669 49
-73 152 -169 246 -231 99 -66 196 -102 460 -170 194 -49 230 -65 281 -118 21
-23 44 -42 50 -42 6 0 29 19 50 41 50 52 89 69 240 109 348 91 404 111 517
187 265 178 418 499 461 966 4 44 3 48 -22 53 -79 17 -103 39 -125 114 l-12
41 -378 -1 c-258 0 -376 3 -371 10 4 6 133 10 380 10 l373 0 12 34 c16 49 66
94 114 104 l41 8 3 61 c2 42 -6 93 -24 164 -20 80 -27 129 -28 214 -1 161 33
273 109 362 19 23 35 47 35 53 0 26 -41 67 -79 78 -49 15 -98 69 -113 127 -10
38 -16 44 -50 54 -38 12 -40 11 -90 -33 -92 -80 -217 -134 -373 -162 -102 -18
-135 -18 -135 0 0 9 27 17 92 25 166 22 313 83 409 172 l53 49 53 -22 c41 -17
55 -28 59 -47 18 -85 60 -131 118 -131 20 0 33 -12 61 -55 19 -31 35 -59 35
-63 0 -4 -14 -20 -31 -37 -42 -40 -71 -87 -99 -160 -21 -52 -24 -77 -24 -190
0 -109 4 -147 27 -235 25 -98 34 -198 21 -245 -4 -16 -13 -20 -50 -20 -39 0
-50 -5 -75 -33 -54 -60 -34 -179 36 -208 19 -8 44 -14 55 -14 17 0 20 -6 20
-46 0 -67 -27 -242 -56 -364 -93 -392 -315 -650 -659 -765 -42 -14 -152 -46
-246 -71 -213 -56 -264 -81 -315 -160 l-16 -24 -40 45 c-59 67 -106 89 -283
135 -88 23 -199 55 -247 71 -356 116 -576 367 -673 770 -28 118 -55 291 -55
362 0 41 3 47 20 47 38 0 89 28 104 59 9 16 16 53 16 80 0 42 -5 56 -29 83
-25 28 -36 33 -75 33 -37 0 -46 4 -50 20 -13 46 -4 139 24 261 58 251 26 445
-94 564 -20 19 -36 38 -36 42 0 4 16 32 35 63 28 43 41 55 61 55 56 0 114 59
114 117 0 10 4 23 8 29 6 10 85 50 102 53 3 1 30 -22 60 -50z m353 40 c12 -7
30 -12 41 -13 12 -1 22 -11 27 -28 7 -26 5 -27 -21 -25 -17 2 -40 18 -60 40
-32 37 -27 47 13 26z m133 -68 c-15 -14 -16 -13 -16 13 0 15 6 37 13 49 11 21
12 21 15 -12 2 -21 -2 -40 -12 -50z m1245 42 c-33 -41 -81 -55 -81 -24 0 20
23 44 33 35 3 -3 16 1 29 10 41 29 51 18 19 -21z m-1500 2 c50 -26 60 -41 72
-104 l7 -33 -38 6 c-39 7 -182 72 -217 99 -29 23 -12 31 25 12 47 -24 84 -17
88 18 2 15 5 27 8 27 3 0 27 -11 55 -25z m1363 9 c3 -9 6 -27 6 -41 0 -21 -2
-24 -15 -13 -8 7 -15 25 -15 41 0 31 14 39 24 13z m306 -2 c0 -40 57 -57 96
-27 31 23 53 18 24 -6 -54 -46 -240 -123 -256 -106 -2 1 3 25 10 52 11 45 17
53 62 77 58 33 64 34 64 10z m-1915 -76 c113 -93 287 -154 465 -163 130 -7
195 6 301 59 68 34 83 38 95 27 7 -8 47 -54 88 -104 l76 -90 -3 -240 -2 -239
-43 -31 c-38 -26 -52 -30 -110 -30 -37 0 -77 4 -89 8 -20 7 -26 3 -45 -29 -26
-44 -17 -61 -92 176 -33 105 -53 185 -49 198 6 24 -14 31 -33 12 -7 -7 -23 -5
-48 5 -21 9 -40 14 -42 12 -3 -2 16 -12 41 -22 36 -13 49 -14 60 -5 10 9 15 9
15 1 0 -19 -48 -24 -102 -10 -29 7 -63 13 -76 13 -36 1 -26 21 15 27 37 6 37
6 6 8 -17 0 -38 4 -47 7 -13 5 -16 -1 -16 -30 0 -33 -2 -36 -30 -36 -27 0 -30
3 -30 34 l0 33 -47 -8 c-27 -4 -69 -16 -95 -28 -30 -12 -50 -16 -54 -10 -3 6
-11 8 -16 7 -8 -3 -10 -89 -9 -271 l2 -267 -70 0 c-39 0 -71 4 -71 10 0 5 27
93 61 195 33 103 59 188 57 191 -3 2 -33 -86 -69 -196 -51 -159 -68 -200 -81
-200 -10 0 -18 -3 -18 -7 0 -17 40 -72 59 -83 26 -13 297 -2 310 14 5 6 12 26
16 44 5 23 3 32 -7 32 -8 0 -32 65 -67 180 -30 99 -56 178 -58 176 -2 -2 19
-80 47 -173 27 -94 50 -173 50 -177 0 -3 -30 -6 -66 -6 l-65 0 2 243 2 243 75
18 c62 15 78 16 98 5 13 -7 24 -16 24 -21 0 -15 31 -8 52 12 12 11 31 20 43
20 20 0 136 -20 143 -25 1 -1 -2 -15 -7 -31 -5 -16 -26 -90 -46 -164 -61 -226
-85 -299 -101 -308 -11 -6 -6 -16 26 -47 l41 -40 104 3 c56 2 105 0 108 -5 3
-4 -1 -21 -7 -38 -11 -25 -10 -34 2 -52 l14 -23 -366 0 -366 0 -21 45 c-25 52
-61 82 -115 93 -39 8 -39 8 -42 61 -2 34 7 90 25 159 24 93 28 124 27 242 -1
112 -4 145 -22 194 -27 73 -62 133 -95 165 -37 34 -20 64 57 101 65 31 116 91
116 137 0 21 24 40 53 42 4 1 32 -19 62 -43z m2190 32 c14 -6 25 -20 25 -30 0
-50 70 -126 133 -147 20 -7 43 -23 52 -37 16 -25 15 -26 -20 -66 -113 -125
-143 -344 -81 -591 17 -67 26 -126 24 -159 -3 -52 -3 -52 -42 -60 -54 -11 -90
-41 -115 -93 l-21 -45 -365 0 c-201 0 -365 2 -365 4 0 3 7 11 15 19 13 14 13
20 -1 54 -20 47 -14 151 10 188 20 31 15 41 -29 59 -22 10 -37 24 -41 40 -7
31 -25 38 -64 24 -53 -18 -135 -5 -183 28 l-42 30 -3 238 -2 238 54 67 c30 36
70 84 89 106 l34 39 69 -36 c98 -51 164 -68 265 -68 107 0 208 19 318 59 84
31 192 94 226 131 21 23 26 24 60 8z m-1655 -42 c0 -44 -9 -66 -25 -66 -23 0
-26 17 -9 59 20 50 34 53 34 7z m1066 -13 c15 -36 12 -53 -11 -53 -16 0 -25
22 -25 66 0 42 16 37 36 -13z m-676 -2 c-12 -23 -30 -28 -30 -9 0 16 34 52 38
39 2 -5 -2 -19 -8 -30z m280 -8 c0 -19 -18 -16 -30 6 -17 33 -12 46 10 26 11
-10 20 -24 20 -32z m-240 1 c0 -21 -18 -54 -30 -54 -14 0 -12 44 2 58 17 17
28 15 28 -4z m198 4 c14 -14 16 -58 2 -58 -12 0 -30 33 -30 54 0 19 11 21 28
4z m-588 -46 c0 -53 -32 -84 -45 -42 -7 21 19 80 35 80 6 0 10 -17 10 -38z
m985 8 c19 -36 11 -73 -13 -68 -13 2 -18 16 -20 51 -4 54 10 61 33 17z m-560
-26 c0 -28 -5 -40 -16 -42 -22 -4 -28 16 -17 56 12 44 33 36 33 -14z m129 30
c3 -9 6 -29 6 -46 0 -23 -4 -29 -17 -26 -24 4 -32 88 -10 88 8 0 18 -7 21 -16z
m-388 -30 c-5 -13 -10 -14 -18 -6 -6 6 -8 18 -4 28 5 13 10 14 18 6 6 -6 8
-18 4 -28z m640 0 c-5 -13 -10 -14 -18 -6 -6 6 -8 18 -4 28 5 13 10 14 18 6 6
-6 8 -18 4 -28z m-756 -3 c0 -33 -16 -49 -33 -32 -7 7 -7 18 1 36 16 34 32 32
32 -4z m58 -7 c-4 -23 -26 -30 -34 -10 -8 20 15 51 29 37 5 -5 7 -17 5 -27z
m769 -8 c-4 -9 -11 -16 -17 -16 -15 0 -24 26 -16 47 6 15 8 15 23 1 9 -9 13
-24 10 -32z m55 19 c8 -18 8 -29 1 -36 -17 -17 -33 -1 -33 32 0 36 16 38 32 4z
m-457 -78 c6 -1 11 15 13 36 4 47 22 38 22 -11 -1 -38 -19 -72 -38 -72 -16 0
-43 55 -37 74 15 49 19 50 24 13 3 -21 11 -39 16 -40z m15 -240 c0 -156 -11
-327 -22 -327 -4 0 -8 99 -8 220 0 189 2 220 15 220 12 0 15 -19 15 -113z
m-1345 -130 c-32 -111 -68 -180 -141 -272 -31 -38 -68 -87 -81 -107 -24 -36
-58 -57 -71 -44 -3 4 5 20 17 37 16 22 20 34 12 38 -8 5 1 20 24 44 19 20 35
42 35 50 0 8 11 22 25 31 16 10 25 26 25 42 0 32 17 64 34 64 10 0 12 12 8 45
-4 44 9 63 22 30 19 -50 51 25 43 101 -5 52 -4 55 14 49 16 -5 22 -1 26 15 6
22 6 22 20 -4 13 -25 12 -37 -12 -119z m2694 108 c18 5 19 2 14 -48 -4 -39 -1
-62 12 -86 16 -32 17 -32 36 -15 18 17 19 16 19 -26 0 -28 6 -47 16 -55 9 -6
19 -29 23 -51 4 -27 13 -42 29 -49 12 -5 22 -18 22 -29 0 -10 17 -34 37 -53
31 -27 35 -36 23 -43 -12 -8 -11 -13 8 -33 33 -35 23 -64 -14 -39 -26 17 -181
232 -210 292 -47 94 -77 214 -62 246 12 25 12 25 20 4 6 -15 13 -20 27 -15z
m-2125 -2 c8 -9 -164 -54 -181 -48 -7 2 -13 10 -13 17 0 10 2 10 9 0 6 -11 20
-8 67 12 59 25 104 32 118 19z m272 -550 c-2 -2 -33 -3 -68 -1 l-65 3 34 115
c18 63 48 169 65 235 l33 120 3 -234 c1 -129 1 -236 -2 -238z m85 272 l47
-150 -26 -21 c-21 -17 -24 -25 -15 -36 7 -7 16 -26 22 -41 l11 -27 -50 0 -50
0 1 228 c0 125 3 220 7 212 3 -8 27 -82 53 -165z m462 -74 c21 -13 36 -26 33
-28 -2 -3 -16 3 -30 13 -15 9 -29 14 -32 11 -8 -8 83 -53 123 -62 41 -8 145
14 136 29 -4 6 1 5 10 -3 9 -7 17 -19 17 -27 0 -7 8 -18 18 -24 11 -8 12 -10
2 -7 -8 2 -21 14 -27 28 -7 13 -13 18 -13 11 0 -24 20 -52 39 -52 28 0 30 -9
14 -47 -8 -20 -14 -63 -14 -96 0 -51 -4 -66 -31 -103 -27 -38 -58 -63 -58 -48
0 4 13 23 28 43 34 43 45 61 38 61 -10 0 -88 -110 -122 -172 -18 -35 -34 -56
-34 -47 0 8 5 20 11 26 6 6 9 19 7 29 -3 13 -9 5 -20 -26 -15 -42 -17 -43 -18
-15 -1 26 -3 27 -10 10 -5 -11 -7 -33 -6 -50 2 -16 1 -21 -2 -10 l-4 20 -9
-20 c-7 -14 -8 -5 -4 28 2 26 12 61 20 78 9 17 14 36 12 42 -5 15 -47 -96 -47
-126 -1 -22 -29 -69 -31 -51 -4 36 8 80 42 149 21 44 41 98 44 120 4 30 -1 23
-18 -30 -30 -89 -60 -146 -65 -123 -2 9 6 35 18 57 22 44 65 210 56 218 -7 7
-10 -5 -26 -82 -7 -33 -20 -79 -31 -103 -18 -43 -59 -102 -59 -87 0 5 6 16 14
24 35 38 76 196 74 281 -1 53 -1 53 -9 -20 -11 -99 -27 -155 -50 -176 -14 -12
-16 -20 -8 -25 14 -8 5 -39 -12 -39 -6 0 -9 7 -6 15 4 8 2 17 -4 20 -5 4 -1
17 11 32 11 14 20 30 20 36 0 6 -7 2 -16 -9 -15 -18 -15 -18 -8 5 4 16 3 21
-5 17 -17 -11 -13 5 7 27 21 24 31 184 12 214 -9 15 -10 11 -5 -21 8 -49 -4
-124 -16 -105 -7 12 -9 11 -9 -1 -1 -12 -2 -12 -10 2 -6 10 -7 25 -1 40 l10
23 2 -25 c2 -14 5 16 8 65 7 103 -1 126 -33 96 -41 -39 -133 -73 -184 -69 -26
3 -54 8 -63 12 -12 5 -22 -2 -37 -28 -12 -20 -26 -36 -32 -36 -5 0 -1 9 10 20
11 11 20 26 20 34 0 20 26 27 56 16 46 -18 99 -11 161 20 34 17 66 37 73 45 7
8 17 11 24 7 6 -4 28 -18 49 -31z m-65 -106 l-13 -60 -6 65 c-5 62 -6 61 -7
-30 -2 -66 -5 -90 -12 -80 -5 8 -10 41 -10 73 0 33 -4 57 -11 57 -11 0 -8 -34
13 -161 6 -36 9 -72 6 -80 -6 -19 -24 39 -39 131 -7 41 -15 66 -16 55 -5 -30
43 -267 62 -307 15 -31 15 -32 -1 -13 -30 37 -56 110 -67 193 -6 45 -15 82
-19 82 -4 0 -8 -4 -8 -9 0 -29 32 -164 50 -211 29 -75 40 -113 35 -118 -5 -6
-33 59 -60 143 -13 39 -24 63 -24 55 -2 -41 75 -234 90 -225 15 10 26 -29 26
-90 0 -33 -2 -45 -4 -27 l-4 33 -30 -32 c-21 -22 -34 -29 -47 -24 -16 8 -15 8
2 13 20 4 46 25 46 37 0 4 6 13 14 21 8 7 12 23 9 34 -5 18 -7 17 -23 -12 -12
-22 -24 -32 -36 -30 -11 2 -32 6 -49 9 -30 7 -30 7 -5 13 14 4 24 11 23 16 -1
5 -5 23 -8 39 -7 29 -7 29 8 10 12 -15 16 -16 16 -5 0 21 -28 69 -29 50 -1 -8
-24 29 -51 84 -28 54 -52 96 -55 93 -3 -2 12 -36 32 -75 36 -68 36 -71 19 -89
-18 -17 -19 -17 -12 0 4 10 2 28 -4 40 -20 38 -91 127 -101 127 -6 0 8 -20 31
-45 38 -41 51 -65 34 -65 -3 0 -24 19 -46 43 -23 23 -33 31 -24 17 17 -24 25
-41 33 -67 2 -7 10 -10 19 -7 8 3 15 1 15 -4 0 -6 -13 -9 -30 -7 -16 2 -30 2
-30 0 0 -7 59 -62 63 -59 2 3 15 0 28 -6 21 -9 19 -9 -14 -6 -24 2 -44 12 -56
27 -11 13 -22 21 -25 18 -7 -6 37 -54 84 -92 29 -23 31 -27 11 -21 -16 4 -21
3 -17 -5 11 -17 -5 -13 -26 6 -10 9 -21 14 -24 10 -3 -3 26 -24 65 -47 40 -22
69 -45 66 -51 -4 -5 1 -9 9 -9 8 0 17 -4 20 -9 3 -4 -13 -3 -37 3 -34 9 -37
12 -17 14 22 4 20 6 -15 18 -21 7 -41 11 -44 8 -3 -3 5 -7 18 -11 15 -4 19 -8
11 -13 -16 -10 105 -53 150 -53 l34 0 -47 -42 c-26 -22 -47 -44 -47 -48 0 -17
29 -4 60 28 19 19 38 35 43 35 5 0 7 -18 4 -41 -3 -23 -2 -52 3 -64 8 -22 6
-22 -76 11 -46 18 -97 42 -114 54 -67 47 -137 156 -155 237 -5 25 -2 39 14 59
25 31 27 75 6 107 -13 20 -13 28 1 72 9 30 12 64 9 85 -7 39 -34 95 -41 87 -3
-3 2 -19 10 -36 19 -36 20 -114 2 -156 -11 -26 -10 -34 6 -60 23 -39 23 -56
-3 -90 -20 -25 -21 -30 -9 -83 17 -80 55 -146 118 -203 29 -27 49 -49 44 -49
-25 0 -114 96 -142 153 -37 76 -50 159 -28 185 27 30 30 57 8 84 -18 24 -19
28 -5 62 21 50 19 119 -6 168 -15 30 -18 43 -9 52 8 8 9 6 4 -9 -6 -16 -5 -18
7 -7 7 6 21 12 31 12 11 0 27 15 39 34 l19 33 41 -13 c47 -17 97 -7 168 32 24
13 45 24 47 24 1 0 5 -17 7 -37 3 -35 4 -34 7 12 2 37 4 42 7 20 3 -16 -1 -57
-9 -90z m-1552 79 c-4 -9 -9 -15 -11 -12 -3 3 -3 13 1 22 4 9 9 15 11 12 3 -3
3 -13 -1 -22z m1754 -26 c19 -11 -59 1 -80 13 -9 5 2 6 25 2 22 -3 47 -10 55
-15z m70 12 c-8 -5 -24 -9 -35 -9 -16 1 -16 2 5 9 35 11 48 11 30 0z m107
-115 c-20 -41 -23 -136 -6 -184 9 -26 8 -35 -5 -50 -19 -21 -21 -62 -4 -79 8
-8 8 -12 1 -12 -25 0 -31 65 -8 97 11 16 13 28 5 48 -15 40 -12 146 5 179 9
16 13 37 10 45 -5 13 -4 13 6 4 10 -10 9 -20 -4 -48z m-350 -97 c-3 -7 -5 -2
-5 12 0 14 2 19 5 13 2 -7 2 -19 0 -25z m-807 16 c0 -3 -5 -14 -10 -25 -10
-17 -23 -19 -152 -19 -118 0 -145 3 -160 17 -10 9 -18 20 -18 25 0 4 77 8 170
8 94 0 170 -3 170 -6z m428 -16 c-3 -22 -8 -23 -103 -26 -116 -3 -141 1 -155
28 -10 20 -7 20 125 20 136 0 136 0 133 -22z m339 0 c-3 -8 -6 -5 -6 6 -1 11
2 17 5 13 3 -3 4 -12 1 -19z m-1707 -4 c0 -8 -4 -12 -10 -9 -6 3 -10 -4 -10
-17 -1 -21 -2 -21 -11 -5 -6 10 -8 25 -5 33 7 19 36 18 36 -2z m3486 2 c3 -8
1 -23 -5 -33 -9 -16 -10 -16 -11 5 0 13 -4 20 -10 17 -5 -3 -10 1 -10 9 0 20
29 21 36 2z m-1776 -84 c0 -7 -4 -10 -10 -7 -5 3 -10 16 -10 28 0 18 2 19 10
7 5 -8 10 -21 10 -28z m20 -76 c0 -9 -4 -16 -10 -16 -5 0 -10 9 -10 19 0 11
-5 23 -11 27 -9 5 -10 -1 -5 -20 4 -18 3 -25 -4 -21 -5 3 -9 19 -8 33 1 15 -2
34 -6 42 -5 8 6 1 23 -17 17 -18 31 -39 31 -47z m335 54 c-7 -35 -17 -44 -27
-26 -6 11 -6 22 2 32 18 20 30 17 25 -6z m-45 -55 c-7 -8 -16 -13 -20 -10 -4
3 -10 -2 -14 -10 -3 -9 1 -15 11 -15 13 0 13 -3 3 -15 -7 -8 -20 -15 -28 -15
-12 0 -13 3 -5 11 6 6 8 20 5 32 -5 20 -6 20 -14 1 -8 -18 -8 -18 -5 1 2 15
10 20 30 19 15 0 27 4 27 8 0 4 5 8 11 8 8 0 8 -5 -1 -15z m-510 -37 c0 -23
-18 -41 -34 -35 -24 9 -20 30 5 24 15 -4 19 -2 15 9 -3 8 -1 14 4 14 6 0 10
-6 10 -12z m544 -5 c3 -10 11 -26 18 -35 10 -15 9 -30 -5 -85 -22 -86 -75
-164 -136 -202 -77 -47 -88 -48 -128 -9 -47 45 -57 66 -42 84 6 8 21 14 33 14
17 0 18 -2 6 -10 -8 -5 -10 -10 -4 -10 19 0 128 40 139 51 5 6 -14 1 -42 -10
-58 -23 -73 -20 -20 3 17 8 25 15 17 15 -13 1 -13 2 0 11 20 13 39 12 20 -1
-11 -8 -9 -9 10 -3 41 11 60 26 25 20 -29 -6 -29 -5 8 14 20 11 37 23 37 25 0
3 -17 -3 -37 -14 -53 -26 -87 -36 -79 -22 4 6 2 11 -4 11 -6 0 -8 5 -5 10 3 6
13 10 21 10 8 0 12 -5 9 -11 -13 -20 70 29 106 63 19 18 31 30 25 26 -24 -18
-27 -6 -5 19 l24 27 -33 -24 c-21 -14 -30 -25 -23 -30 13 -7 -8 -29 -46 -49
-30 -15 -43 -14 -43 4 0 14 17 20 46 16 6 -1 17 6 24 14 10 12 8 16 -10 23
-20 8 -21 9 -6 15 10 4 22 5 26 2 5 -3 19 8 32 24 27 35 34 37 42 14z m-708
-8 c-18 -14 -18 -19 -7 -83 25 -143 97 -241 216 -298 38 -19 76 -34 85 -34 8
1 -7 10 -34 20 -27 11 -54 25 -60 31 -8 9 -6 10 9 4 11 -4 49 -19 85 -32 36
-13 70 -30 76 -38 9 -12 14 -11 33 9 13 14 35 27 49 31 50 12 147 67 185 103
59 56 102 152 109 240 1 17 6 32 10 32 10 0 10 -3 -6 -81 -33 -155 -112 -240
-274 -299 -35 -13 -69 -32 -77 -43 -13 -19 -14 -19 -43 2 -38 27 -48 27 -22 1
19 -19 20 -33 20 -511 l0 -491 -29 24 c-43 37 -115 62 -331 118 -107 28 -229
66 -270 83 -196 85 -347 231 -450 436 -67 134 -130 372 -145 551 l-7 75 53 20
c43 16 58 28 76 60 13 22 23 50 23 63 l0 22 373 0 c327 -1 370 -2 353 -15z
m1484 -5 c0 -43 38 -97 83 -119 24 -12 49 -21 57 -21 29 0 -17 -290 -75 -465
-81 -248 -198 -409 -387 -533 -101 -66 -169 -91 -399 -152 -215 -56 -287 -82
-330 -118 l-29 -24 0 491 c0 478 1 492 20 511 11 11 28 20 38 20 10 0 49 15
87 34 119 57 194 160 217 301 10 60 9 67 -8 80 -17 13 27 14 354 15 368 0 372
0 372 -20z m-1063 -12 c-3 -8 -6 -5 -6 6 -1 11 2 17 5 13 3 -3 4 -12 1 -19z
m165 0 c-7 -7 -12 -8 -12 -2 0 6 3 14 7 17 3 4 9 5 12 2 2 -3 -1 -11 -7 -17z
m-202 -14 c0 -14 -4 -23 -10 -19 -5 3 -10 -1 -10 -9 0 -8 5 -18 10 -21 6 -3 9
-18 9 -33 l-2 -27 -4 25 c-3 14 -9 30 -13 35 -5 6 -14 24 -20 39 -9 25 -8 27
4 17 11 -9 15 -8 20 4 8 23 16 18 16 -11z m-166 -41 c-8 -8 -12 -19 -9 -24 4
-5 -3 -9 -14 -9 -11 0 -23 5 -26 10 -3 6 3 10 14 10 14 0 23 9 27 26 5 18 9
22 14 13 5 -7 2 -18 -6 -26z m-24 1 c0 -2 -13 -4 -30 -4 -16 0 -30 4 -30 8 0
5 14 7 30 4 17 -2 30 -6 30 -8z m-1209 -96 c-17 -41 -38 -84 -47 -96 -15 -22
-72 -55 -149 -86 l-40 -16 40 36 c126 114 177 170 197 215 35 76 33 30 -1 -53z
m1439 83 c0 -4 -7 -16 -15 -27 -13 -18 -14 -17 -12 12 1 21 6 30 15 27 6 -3
12 -8 12 -12z m1482 -185 c92 -86 99 -95 63 -80 -132 54 -154 75 -200 198 -33
88 -31 104 5 35 20 -39 60 -86 132 -153z m-1662 163 c0 -6 -4 -7 -10 -4 -5 3
-10 11 -10 16 0 6 5 7 10 4 6 -3 10 -11 10 -16z m174 -31 c-4 -6 -11 -25 -15
-42 l-7 -31 -1 31 c-1 16 4 35 11 42 15 15 21 15 12 0z m39 -3 c-3 -9 -8 -14
-10 -11 -3 3 -2 9 2 15 9 16 15 13 8 -4z m-254 -11 c18 -9 30 -18 28 -21 -3
-2 -22 5 -44 16 -45 24 -31 28 16 5z m228 -31 c-3 -10 -5 -4 -5 12 0 17 2 24
5 18 2 -7 2 -21 0 -30z m83 7 c0 -5 -9 -10 -20 -10 -11 0 -20 5 -20 10 0 6 9
10 20 10 11 0 20 -4 20 -10z m-228 -12 c-9 -9 -15 -9 -24 0 -9 9 -7 12 12 12
19 0 21 -3 12 -12z m198 -18 c0 -5 -9 -10 -21 -10 -11 0 -17 5 -14 10 3 6 13
10 21 10 8 0 14 -4 14 -10z m-150 -40 c0 -5 -9 -10 -19 -10 -11 0 -23 5 -26
10 -4 6 5 10 19 10 14 0 26 -4 26 -10z m130 -119 c-1 -4 -16 -13 -35 -22 l-35
-16 0 55 0 56 35 -34 c19 -19 35 -36 35 -39z m-77 -348 c10 -344 9 -741 -3
-748 -7 -4 -10 102 -10 312 0 175 -3 396 -7 491 -4 112 -3 172 4 172 6 0 12
-87 16 -227z m-1173 -275 c-11 -38 -49 -73 -70 -66 -7 2 1 19 17 40 16 20 36
55 44 79 14 43 14 43 17 14 2 -16 -1 -47 -8 -67z m2341 55 c6 -21 25 -56 40
-77 16 -22 27 -41 25 -43 -2 -2 -15 2 -29 8 -29 13 -57 72 -57 119 0 40 6 38
21 -7z"/>
<path d="M1455 4180 c10 -11 20 -20 22 -20 2 0 -1 9 -7 20 -6 11 -16 20 -22
20 -6 0 -3 -9 7 -20z"/>
<path d="M1497 4271 c-4 -17 -3 -21 5 -13 5 5 8 16 6 23 -3 8 -7 3 -11 -10z"/>
<path d="M2600 4276 c0 -8 4 -17 9 -20 5 -4 7 3 4 14 -6 23 -13 26 -13 6z"/>
<path d="M2639 4178 c-12 -23 -12 -23 10 -4 23 21 26 26 11 26 -5 0 -15 -10
-21 -22z"/>
<path d="M1549 4102 c5 -34 6 -35 9 -8 2 16 0 32 -5 37 -5 5 -7 -7 -4 -29z"/>
<path d="M2554 4126 c-3 -8 -4 -25 -2 -38 3 -17 5 -13 9 15 5 38 2 47 -7 23z"/>
<path d="M1591 4020 c0 -33 1 -34 11 -12 8 17 8 26 0 34 -9 9 -12 4 -11 -22z"/>
<path d="M2504 4036 c-3 -8 -1 -23 5 -33 9 -15 10 -13 11 15 0 34 -7 42 -16
18z"/>
<path d="M1641 3968 c0 -7 4 -22 9 -33 8 -18 9 -17 9 7 1 15 -3 30 -9 33 -5 3
-10 0 -9 -7z"/>
<path d="M2457 3977 c-4 -10 -7 -28 -6 -40 0 -21 1 -21 10 2 5 14 8 32 7 40
-3 13 -5 13 -11 -2z"/>
<path d="M2397 3957 c-4 -10 -7 -28 -6 -40 0 -21 1 -21 10 2 5 14 8 32 7 40
-3 13 -5 13 -11 -2z"/>
<path d="M2030 3889 c0 -4 5 -11 10 -14 6 -3 10 -15 10 -26 0 -30 14 -22 26
14 10 33 9 34 -18 34 -15 0 -28 -4 -28 -8z"/>
<path d="M1885 3850 c-7 -12 22 -70 36 -70 16 0 22 30 11 56 -12 24 -36 32
-47 14z m33 -35 c-3 -3 -9 2 -12 12 -6 14 -5 15 5 6 7 -7 10 -15 7 -18z"/>
<path d="M1848 3834 c-3 -5 -3 -24 -1 -42 4 -24 10 -32 20 -28 8 3 19 6 24 6
15 0 10 13 -14 44 -13 16 -26 25 -29 20z"/>
<path d="M1806 3807 c-17 -13 -17 -15 7 -41 l26 -28 -3 36 c-4 45 -8 49 -30
33z"/>
<path d="M1763 3783 c-18 -6 -16 -35 3 -59 11 -13 17 -15 20 -6 3 6 10 9 16 6
13 -8 0 37 -16 52 -6 7 -17 10 -23 7z"/>
<path d="M1711 3761 c-8 -5 -11 -16 -8 -25 4 -9 2 -16 -2 -16 -5 0 -11 7 -15
15 -3 8 -15 15 -26 15 -18 0 -19 -3 -10 -21 7 -11 9 -23 7 -26 -3 -2 -10 5
-17 16 -6 12 -15 21 -21 21 -6 0 -6 -7 1 -19 22 -43 1 -43 -24 0 -23 39 -33
31 -11 -10 15 -29 27 -37 50 -31 6 1 25 2 43 2 24 -1 32 3 32 16 0 14 2 14 9
3 6 -9 15 -11 27 -6 17 7 17 8 2 12 -10 3 -15 10 -11 19 3 8 0 14 -6 14 -6 0
-8 7 -5 15 7 17 4 18 -15 6z"/>
<path d="M2214 3829 c-19 -21 -12 -48 14 -57 15 -5 36 42 29 62 -8 21 -20 20
-43 -5z m22 -26 c-10 -10 -19 5 -10 18 6 11 8 11 12 0 2 -7 1 -15 -2 -18z"/>
<path d="M2265 3790 c-14 -27 -14 -30 3 -39 15 -8 22 -4 35 18 12 21 13 31 5
39 -18 18 -26 15 -43 -18z m35 0 c0 -5 -5 -10 -11 -10 -5 0 -7 5 -4 10 3 6 8
10 11 10 2 0 4 -4 4 -10z"/>
<path d="M2325 3760 c-20 -38 -19 -40 10 -40 18 0 26 7 31 24 12 50 -17 62
-41 16z m35 -4 c0 -3 -4 -8 -10 -11 -5 -3 -10 -1 -10 4 0 6 5 11 10 11 6 0 10
-2 10 -4z"/>
<path d="M2381 3744 c-17 -38 -14 -54 12 -54 18 0 19 2 7 10 -13 8 -12 10 4
10 15 0 16 3 7 14 -10 11 -8 15 6 18 16 4 16 5 -3 16 -18 10 -23 8 -33 -14z"/>
<path d="M2433 3710 c-11 -29 -2 -42 13 -19 4 8 9 7 15 -2 8 -11 12 -10 24 5
8 11 15 27 15 35 -1 13 -3 13 -14 -2 -12 -15 -14 -16 -20 -2 -9 23 -20 18 -33
-15z"/>
<path d="M1327 3364 c-4 -4 -7 -18 -7 -31 0 -17 6 -23 21 -23 16 0 20 5 17 27
-3 26 -18 39 -31 27z"/>
<path d="M1320 3270 c0 -13 7 -20 20 -20 13 0 20 7 20 20 0 13 -7 20 -20 20
-13 0 -20 -7 -20 -20z"/>
<path d="M1131 3150 c0 -8 4 -24 9 -35 5 -13 9 -14 9 -5 0 8 -4 24 -9 35 -5
13 -9 14 -9 5z"/>
<path d="M2915 3463 c74 -10 104 -37 116 -108 6 -39 7 -39 8 -7 2 69 -50 123
-116 121 -33 -2 -34 -2 -8 -6z"/>
<path d="M2818 3425 c-24 -19 -66 -46 -94 -59 -53 -25 -107 -86 -76 -86 4 0
13 14 19 30 7 19 18 30 31 30 10 0 56 27 102 60 46 33 78 60 72 60 -6 0 -30
-16 -54 -35z"/>
<path d="M2794 3355 c-78 -51 -106 -75 -86 -75 5 0 17 9 28 21 10 12 48 39 85
60 66 40 115 49 137 27 18 -18 14 -67 -8 -115 l-19 -43 -205 0 -206 0 -31 -28
c-28 -25 -30 -31 -20 -50 15 -29 79 -61 138 -69 30 -4 56 -15 71 -30 l25 -25
-41 -41 c-51 -53 -62 -76 -62 -125 0 -39 30 -92 52 -92 6 0 -1 11 -16 25 -45
42 -28 138 33 186 l26 21 3 -21 c2 -12 -8 -35 -22 -52 -14 -17 -26 -41 -26
-53 0 -37 37 -74 89 -90 99 -29 131 -59 119 -113 -3 -14 -8 -9 -20 18 -10 22
-27 40 -44 47 -38 15 -117 32 -123 26 -2 -2 1 -4 7 -4 22 0 12 -29 -20 -66
-25 -29 -28 -35 -11 -26 11 7 31 28 43 47 12 19 26 35 32 35 6 0 27 -17 47
-39 20 -21 45 -44 56 -50 16 -9 -10 -11 -115 -9 -116 1 -139 -1 -163 -17 -15
-10 -27 -25 -25 -34 3 -13 22 -16 113 -19 l110 -3 -25 -19 c-40 -30 -16 -34
29 -4 32 20 57 28 111 32 60 4 70 7 70 23 0 11 -7 19 -15 19 -8 0 -15 5 -15
10 0 6 -7 10 -15 10 -10 0 -15 10 -15 33 0 43 -20 69 -69 92 l-41 18 0 98 c0
90 2 98 20 104 12 4 56 33 99 66 77 57 117 102 107 117 -3 5 6 31 19 58 14 27
24 56 25 64 0 8 -11 -9 -25 -37 -25 -55 -33 -61 -52 -42 -9 9 -7 21 8 50 21
43 25 109 7 127 -7 7 -30 12 -52 11 -32 0 -59 -12 -122 -54z m157 -155 c47
-25 12 -30 -228 -30 -245 0 -246 0 -228 20 17 19 31 20 227 20 125 0 217 -4
229 -10z m-21 -70 l-34 -30 -164 0 c-150 0 -168 2 -203 22 -22 12 -39 25 -39
30 0 4 107 8 238 8 l237 -1 -35 -29z m-150 -50 c0 -5 -20 -10 -44 -10 -25 0
-48 5 -51 10 -4 6 13 10 44 10 28 0 51 -4 51 -10z m94 -1 c-8 -13 -94 -69
-106 -69 -20 0 -5 21 35 48 42 30 85 42 71 21z m-126 -153 c2 -118 1 -127 -15
-124 -16 3 -18 17 -21 118 -3 121 1 144 21 138 8 -3 13 -41 15 -132z m-53
-105 c-10 -9 -35 30 -35 54 0 11 8 32 18 45 l17 25 3 -59 c2 -32 0 -61 -3 -65z
m117 -108 c10 -9 18 -22 18 -30 0 -11 -5 -10 -24 2 -27 18 -42 45 -24 45 6 0
20 -7 30 -17z m108 -102 c0 -9 -365 -21 -383 -13 -4 2 -5 8 -2 13 8 12 385 12
385 0z"/>
<path d="M2112 2780 c-1 -52 -8 -96 -17 -114 -18 -34 -18 -33 -1 -33 18 0 30
92 24 177 -3 43 -5 37 -6 -30z"/>
<path d="M2293 2628 c-16 -19 -49 -89 -57 -118 -4 -14 11 8 33 49 38 70 48 99
24 69z"/>
<path d="M2210 2530 c-13 -34 -20 -64 -16 -67 3 -3 6 0 6 8 0 8 11 38 25 67
13 28 20 52 16 52 -5 0 -19 -27 -31 -60z"/>
<path d="M1870 2567 c0 -8 39 -81 40 -74 0 12 -28 77 -34 77 -4 0 -6 -1 -6 -3z"/>
<path d="M1930 2486 c0 -2 10 -30 21 -63 12 -32 23 -64 25 -72 3 -8 7 -11 10
-8 6 6 -44 147 -52 147 -2 0 -4 -2 -4 -4z"/>
<path d="M1946 2344 c-4 -10 -1 -21 6 -25 16 -10 25 18 10 33 -6 6 -12 3 -16
-8z"/>
<path d="M2250 2370 c-9 -6 -10 -10 -3 -10 6 0 15 5 18 10 8 12 4 12 -15 0z"/>
<path d="M1585 2250 c9 -14 -11 -37 -60 -69 -38 -24 -49 -26 -205 -31 -91 -3
-171 -9 -177 -13 -20 -12 -15 7 7 36 38 48 95 61 238 54 90 -5 135 -3 155 6
24 10 -1 11 -140 9 -220 -5 -266 -23 -289 -116 -7 -29 -7 -29 17 -13 13 10 36
17 51 17 27 0 28 -2 28 -48 0 -60 -31 -186 -60 -242 -26 -51 -21 -81 19 -109
35 -25 42 -19 72 65 15 46 59 283 59 327 0 4 29 7 64 7 l65 0 6 -57 c22 -186
75 -335 141 -392 34 -30 84 -42 84 -20 0 6 -20 48 -44 92 -57 105 -97 232
-102 327 l-5 75 32 20 c18 11 42 35 52 53 17 29 17 32 2 32 -9 0 -13 -5 -10
-10z m-65 -297 c16 -58 65 -173 118 -275 2 -5 -4 -8 -14 -8 -29 0 -87 72 -116
143 -29 69 -58 210 -58 278 0 28 5 38 18 41 14 3 18 -7 24 -51 4 -30 17 -87
28 -128z m-249 167 c29 0 -26 -311 -63 -363 -16 -21 -43 -14 -58 13 -7 13 -3
30 15 62 27 48 50 139 61 236 5 49 10 62 21 58 8 -4 19 -6 24 -6z"/>
<path d="M2910 2241 c0 -5 -11 -22 -24 -38 -13 -15 -24 -32 -24 -38 -1 -5 -9
-11 -19 -13 -12 -2 -14 0 -6 5 7 5 -20 7 -60 5 -105 -5 -114 -9 -22 -12 55 -1
74 -4 60 -10 -50 -22 -214 0 -223 29 -3 10 0 12 13 8 9 -4 29 -9 43 -12 15 -3
6 3 -20 12 l-46 16 -71 -44 c-83 -52 -87 -64 -77 -201 10 -152 69 -295 149
-363 l40 -35 -32 -40 c-18 -22 -31 -48 -29 -58 4 -18 75 -39 140 -41 l38 -1
135 277 c132 270 135 278 116 293 -29 22 -48 101 -33 135 17 38 14 87 -7 113
-20 22 -41 29 -41 13z m20 -16 c0 -15 -38 -55 -52 -55 -5 0 4 16 19 35 32 40
33 40 33 20z m30 -32 c0 -5 -9 -35 -19 -68 -18 -59 -18 -60 1 -112 20 -51 19
-83 -2 -83 -5 0 -10 13 -10 29 0 16 -7 48 -15 71 -16 45 -15 57 13 127 15 38
32 57 32 36z m-390 -60 c-23 -102 -32 -242 -20 -314 18 -121 98 -260 161 -281
7 -2 9 -10 5 -16 -8 -13 -36 -16 -36 -4 0 4 -24 25 -52 46 -68 49 -100 91
-137 181 -43 102 -65 281 -43 338 6 15 105 84 123 86 4 1 3 -16 -1 -36z m335
-2 c-16 -42 -16 -75 0 -117 15 -39 15 -50 4 -70 -7 -13 -15 -24 -19 -24 -4 0
-26 43 -51 95 l-44 95 -39 -6 c-62 -10 -166 5 -166 23 0 12 7 14 28 9 77 -17
161 -18 206 -3 26 9 44 12 41 7 -3 -6 1 -7 9 -4 9 3 13 10 10 15 -3 5 2 6 11
3 10 -4 14 -13 10 -23z m-226 -210 c52 -113 80 -184 75 -193 -27 -45 -88 -118
-99 -118 -18 0 -61 90 -81 170 -13 49 -15 87 -10 155 8 110 17 165 25 165 3 0
44 -81 90 -179z m44 20 c71 -138 77 -155 63 -169 -14 -14 -17 -11 -34 29 -11
24 -47 102 -80 172 -48 99 -57 128 -44 125 11 -2 46 -60 95 -157z m112 57 c26
-48 45 -92 43 -98 -2 -6 -27 38 -57 97 -62 126 -54 127 14 1z m-73 -43 c40
-79 63 -134 57 -139 -12 -13 -9 -16 -67 99 -69 138 -85 177 -69 173 6 -2 42
-62 79 -133z m28 15 c33 -65 56 -121 52 -124 -4 -3 -36 51 -70 120 -34 68 -57
124 -52 124 5 0 37 -54 70 -120z m20 20 c27 -55 50 -105 49 -112 0 -13 -107
189 -108 205 -2 22 14 -3 59 -93z m145 -70 c8 7 15 9 14 4 0 -5 -55 -115 -122
-244 l-122 -235 -63 2 c-91 4 -99 11 -65 56 32 42 46 45 70 17 21 -24 36 -25
53 -5 11 13 8 20 -20 44 -24 20 -31 31 -24 42 5 8 60 86 123 172 90 122 118
154 128 145 9 -7 17 -7 28 2z"/>
<path d="M2820 2120 c-8 -5 -10 -10 -5 -10 6 0 17 5 25 10 8 5 11 10 5 10 -5
0 -17 -5 -25 -10z"/>
<path d="M1060 4768 c0 -13 7 -32 15 -42 13 -17 12 -22 -10 -48 -35 -41 -35
-109 0 -143 27 -28 57 -32 75 -10 27 33 -17 74 -47 44 -9 -9 -14 -5 -19 15 -6
27 12 86 27 86 16 0 10 31 -11 57 -27 34 -26 52 3 47 20 -4 21 -4 2 5 -30 15
-35 13 -35 -11z m26 -97 c-39 -43 -23 -146 18 -112 12 10 20 11 28 3 25 -25
-28 -44 -62 -22 -23 14 -20 112 4 139 11 12 21 19 24 16 3 -3 -2 -13 -12 -24z"/>
<path d="M3015 4780 c-19 -8 -19 -9 3 -9 27 -1 29 -22 2 -46 -11 -10 -20 -24
-20 -32 0 -7 9 -22 20 -33 20 -20 26 -54 14 -84 -5 -12 -9 -13 -25 -3 -15 9
-22 9 -34 -4 -37 -37 20 -74 64 -42 35 27 41 99 12 149 -18 31 -19 37 -6 68
19 44 11 53 -30 36z m45 -174 c0 -50 -16 -75 -50 -78 -19 -2 -26 2 -28 20 -4
25 0 27 28 10 17 -11 22 -10 30 2 16 25 11 76 -10 103 -29 36 -24 47 5 14 18
-20 25 -40 25 -71z"/>
<path d="M1190 4721 c0 -5 18 -12 40 -16 95 -16 103 -102 31 -313 -24 -68 -41
-126 -38 -128 7 -7 73 162 91 233 32 123 16 189 -54 217 -45 18 -70 20 -70 7z"/>
<path d="M2863 4719 c-17 -5 -43 -23 -57 -40 -44 -52 -34 -136 39 -325 20 -52
40 -94 45 -94 4 0 -12 57 -37 128 -56 159 -66 244 -33 284 14 19 35 30 61 34
21 4 39 10 39 15 0 11 -15 10 -57 -2z"/>
<path d="M1157 4666 c-5 -11 -1 -28 8 -42 8 -13 15 -32 15 -44 0 -15 7 -20 29
-20 36 0 53 20 49 57 -4 37 -31 41 -47 7 -14 -33 -30 -22 -40 28 -6 27 -8 30
-14 14z m93 -55 c0 -23 -25 -47 -35 -31 -10 16 4 50 21 50 8 0 14 -8 14 -19z"/>
<path d="M1111 4650 c-1 -22 15 -44 28 -36 16 10 14 26 -3 20 -8 -3 -16 2 -19
13 -3 12 -5 13 -6 3z"/>
<path d="M1181 4528 c-1 -10 -7 -15 -14 -12 -10 4 -12 -3 -8 -28 4 -27 6 -29
9 -10 2 15 8 22 18 18 16 -6 17 0 4 29 -7 17 -9 17 -9 3z"/>
<path d="M900 4455 c0 -14 -6 -25 -14 -25 -7 0 -25 -10 -40 -21 -23 -18 -27
-28 -24 -62 3 -45 22 -60 32 -25 4 16 8 19 14 11 6 -9 11 -7 20 7 11 17 10 20
-7 20 -11 0 -27 -10 -35 -22 -16 -22 -16 -22 -16 10 0 35 24 63 63 73 14 3 21
12 19 24 -3 13 1 16 13 11 9 -3 28 -6 41 -6 18 0 31 -10 47 -37 17 -29 23 -34
25 -19 5 24 -36 66 -64 66 -13 0 -34 4 -48 10 -24 9 -26 7 -26 -15z"/>
<path d="M1116 4455 c-11 -31 -6 -56 18 -80 30 -30 41 -71 22 -78 -10 -4 -18
4 -25 24 -5 16 -25 48 -43 71 -18 24 -34 45 -35 47 -2 2 -6 1 -10 -2 -3 -4 5
-20 19 -35 42 -44 58 -86 58 -152 0 -33 -3 -60 -7 -60 -17 0 -31 17 -42 51
-30 94 -96 160 -158 158 l-28 -1 27 -8 c48 -14 53 -22 24 -37 -14 -7 -26 -19
-26 -24 0 -7 10 -5 25 5 13 9 31 16 39 16 39 0 110 -136 88 -171 -7 -10 -12
-28 -12 -40 0 -20 -2 -21 -17 -7 -10 8 -26 18 -36 21 -9 4 -22 18 -29 32 -10
21 -8 28 8 41 18 14 18 15 -3 4 -30 -14 -29 -38 2 -80 14 -19 25 -28 25 -20 0
8 11 3 29 -14 31 -30 46 -23 36 17 -4 15 -1 28 8 36 17 13 21 9 31 -31 8 -36
18 -35 36 5 9 20 22 31 33 31 10 -1 16 3 14 10 -2 6 -13 10 -25 8 -27 -4 -40
38 -23 74 13 30 46 29 46 0 0 -24 -22 -33 -28 -11 -4 12 -5 11 -3 -2 1 -11 9
-18 21 -18 16 0 20 6 19 30 -2 43 -25 97 -51 118 -13 10 -23 30 -23 43 0 24 1
24 22 10 28 -20 49 -21 42 -1 -4 8 -10 12 -16 9 -5 -3 -17 1 -27 10 -17 16
-19 16 -25 1z"/>
<path d="M916 4284 c-24 -13 -30 -14 -37 -2 -5 8 -9 8 -9 2 0 -6 7 -17 15 -24
11 -10 18 -9 30 4 19 19 46 21 63 4 9 -9 12 -9 12 0 0 6 -9 16 -19 22 -24 12
-20 13 -55 -6z"/>
<path d="M3138 4289 c-10 -5 -18 -14 -18 -20 0 -5 9 -4 20 3 17 11 26 10 51
-5 34 -19 49 -15 49 11 0 13 -2 14 -9 4 -7 -12 -14 -11 -39 2 -36 19 -32 18
-54 5z"/>
<path d="M670 4201 c0 -6 8 -27 18 -46 14 -25 22 -31 30 -23 8 8 4 16 -14 30
-36 29 -30 38 29 38 65 0 115 -24 140 -68 17 -29 37 -122 38 -176 0 -10 9 -20
20 -23 22 -6 24 -14 8 -30 -6 -6 -9 -17 -7 -23 2 -7 16 6 31 29 l27 41 -37 1
c-33 0 -35 1 -15 9 26 11 28 28 7 56 -8 10 -15 33 -16 49 -2 27 -2 28 -6 5 -3
-14 3 -39 13 -57 18 -35 14 -53 -10 -34 -8 7 -15 37 -18 71 -5 64 -23 98 -71
134 -32 23 -167 37 -167 17z"/>
<path d="M3300 4199 c-56 -23 -100 -92 -100 -158 0 -49 -8 -71 -26 -71 -18 0
-18 4 2 41 8 17 13 42 11 57 -4 26 -4 26 -6 -3 -1 -16 -8 -39 -16 -49 -21 -28
-19 -45 8 -56 19 -8 17 -9 -15 -9 l-37 -1 27 -41 c26 -39 44 -40 23 -1 -9 16
-7 21 9 25 10 3 19 13 19 23 1 48 23 150 39 177 24 42 76 67 139 67 57 0 64
-7 34 -34 -16 -15 -17 -21 -7 -47 9 -27 8 -33 -8 -45 -14 -10 -23 -11 -33 -3
-20 17 -16 32 7 26 23 -6 24 -3 10 24 -23 43 -64 9 -73 -61 -3 -25 -8 -56 -11
-70 -4 -17 -1 -14 11 10 9 19 17 53 17 75 1 31 5 40 21 43 16 3 18 1 8 -9 -17
-17 -17 -46 0 -56 10 -6 9 -18 -5 -58 -9 -27 -17 -46 -18 -42 0 5 -7 1 -16 -8
-9 -9 -13 -19 -10 -23 4 -3 11 -1 15 6 4 7 15 10 25 6 15 -6 17 -3 11 15 -4
12 -1 36 5 52 10 24 15 27 27 18 11 -10 18 -7 34 9 26 29 39 28 39 -3 0 -18 4
-23 16 -18 14 5 15 3 4 -16 -6 -13 -9 -25 -6 -29 9 -8 13 -1 21 35 5 28 4 32
-9 27 -12 -5 -16 0 -16 20 0 20 -4 24 -17 19 -10 -3 -26 -13 -35 -20 -28 -24
-43 -4 -18 23 17 17 21 30 16 49 -4 16 -1 34 9 48 27 39 20 47 -42 46 -32 0
-69 -5 -83 -10z"/>
<path d="M1166 4149 c-7 -16 11 -106 19 -97 2 1 0 28 -4 58 -5 36 -10 49 -15
39z"/>
<path d="M2934 4133 c0 -16 -4 -41 -8 -58 -5 -22 -5 -26 3 -14 14 22 26 99 15
99 -5 0 -9 -12 -10 -27z"/>
<path d="M730 4121 c-14 -27 -13 -30 10 -24 23 6 29 -21 7 -30 -17 -6 -30 2
-45 28 -6 11 -12 15 -12 9 0 -6 9 -23 20 -37 14 -18 17 -28 9 -33 -6 -3 -14
-2 -18 4 -3 6 -19 15 -34 21 -25 10 -27 9 -27 -15 0 -20 -4 -25 -16 -20 -13 5
-14 1 -9 -27 8 -36 12 -43 21 -35 3 4 0 16 -6 29 -11 19 -10 21 4 16 12 -5 16
0 16 18 0 14 3 25 6 25 17 0 44 -23 44 -37 0 -14 2 -14 20 2 19 17 20 17 30
-11 6 -16 9 -39 7 -52 -4 -18 -1 -21 14 -17 11 4 19 2 19 -4 0 -6 5 -11 10
-11 18 0 10 22 -10 27 -11 3 -20 14 -20 25 0 10 -7 32 -15 48 -13 25 -13 29 0
34 18 7 20 52 3 59 -8 3 -6 6 5 6 10 1 22 -9 27 -21 6 -17 9 -18 9 -6 1 20
-25 48 -44 48 -8 0 -19 -9 -25 -19z"/>
<path d="M1302 4095 c-23 -7 -55 -21 -70 -30 -41 -27 -160 -156 -137 -149 27
9 48 28 81 75 33 48 93 85 152 95 23 4 45 11 48 15 7 13 -24 10 -74 -6z"/>
<path d="M2735 4100 c3 -5 18 -10 33 -10 54 0 128 -45 172 -105 33 -45 71 -75
94 -75 2 0 -33 37 -78 83 -67 68 -90 86 -135 100 -60 19 -95 22 -86 7z"/>
<path d="M788 4058 c-4 -8 -2 -20 4 -26 6 -6 14 -28 18 -49 7 -34 8 -35 8 -8
1 41 -22 104 -30 83z"/>
<path d="M446 4025 c-5 -21 -12 -25 -43 -25 -20 0 -45 7 -55 17 -17 15 -18 14
-17 -28 1 -28 3 -34 6 -17 4 27 16 29 96 13 11 -2 17 3 17 17 0 30 23 16 24
-15 1 -14 14 -39 30 -55 15 -16 29 -36 30 -43 5 -26 18 -49 27 -49 15 0 -20
72 -49 104 -26 28 -26 29 -4 23 16 -4 22 -1 22 11 0 10 4 23 9 31 8 12 12 12
25 2 9 -8 16 -22 16 -32 0 -11 7 -19 15 -19 13 0 14 4 4 23 -7 12 -22 31 -34
43 l-22 20 -12 -33 c-7 -18 -16 -33 -20 -33 -4 0 -16 16 -27 35 -22 42 -30 44
-38 10z"/>
<path d="M370 3972 c0 -11 71 -62 86 -62 5 0 22 -7 38 -15 16 -9 31 -13 34
-10 3 2 -17 14 -44 26 -27 12 -64 32 -81 46 -18 13 -33 20 -33 15z"/>
<path d="M3719 3964 c-8 -10 -43 -30 -78 -46 -35 -16 -61 -31 -58 -35 4 -3 12
-1 19 4 7 6 29 15 48 22 39 12 98 56 89 65 -3 4 -12 -1 -20 -10z"/>
<path d="M827 3922 c-19 -21 -23 -42 -5 -24 21 21 26 13 17 -25 -11 -49 -11
-66 0 -59 13 9 25 106 14 117 -6 6 -16 2 -26 -9z"/>
<path d="M3255 3883 c10 -71 27 -91 19 -23 -6 50 -5 53 10 41 9 -7 16 -9 16
-4 0 14 -22 33 -38 33 -11 0 -13 -10 -7 -47z"/>
<path d="M1325 3860 c-3 -5 -1 -10 4 -10 6 0 11 5 11 10 0 6 -2 10 -4 10 -3 0
-8 -4 -11 -10z"/>
<path d="M2770 3860 c0 -5 5 -10 11 -10 5 0 7 5 4 10 -3 6 -8 10 -11 10 -2 0
-4 -4 -4 -10z"/>
<path d="M2815 3860 c3 -5 8 -10 11 -10 2 0 4 5 4 10 0 6 -5 10 -11 10 -5 0
-7 -4 -4 -10z"/>
<path d="M7474 3809 c-41 -12 -91 -69 -100 -114 -17 -90 24 -142 156 -202 98
-45 120 -66 120 -116 0 -78 -84 -121 -159 -83 -39 21 -87 77 -101 120 -11 35
-30 49 -30 24 0 -7 7 -45 16 -84 l17 -72 58 -16 c90 -25 139 -21 186 13 54 39
76 89 71 158 -7 77 -28 100 -153 163 -88 44 -112 61 -119 83 -21 58 42 115
110 102 45 -8 110 -66 124 -111 16 -47 34 -44 26 4 -3 20 -6 54 -6 75 0 34 -2
37 -27 36 -16 -1 -50 5 -76 14 -53 19 -67 19 -113 6z"/>
<path d="M4150 3803 c0 -5 18 -15 39 -24 l39 -17 4 -188 c3 -172 5 -193 25
-230 34 -63 80 -87 177 -92 105 -5 160 10 207 57 53 52 69 116 76 296 6 153
12 185 38 185 8 0 15 5 15 10 0 6 -37 10 -90 10 -53 0 -90 -4 -90 -10 0 -5 9
-10 20 -10 12 0 32 -11 45 -25 24 -23 25 -29 25 -154 0 -153 -12 -220 -48
-263 -51 -61 -143 -76 -222 -35 -76 38 -85 65 -85 252 0 184 5 210 40 219 14
4 25 11 25 16 0 6 -48 10 -120 10 -66 0 -120 -3 -120 -7z"/>
<path d="M4794 3799 c-5 -9 3 -14 38 -23 15 -3 35 -17 44 -31 21 -32 29 -157
19 -310 -7 -114 -8 -120 -36 -146 -16 -15 -29 -29 -29 -31 0 -7 185 2 188 9 1
4 -11 11 -28 16 -16 4 -35 17 -42 30 -16 27 -25 371 -10 366 5 -2 94 -97 197
-211 103 -115 190 -208 194 -208 4 0 11 108 15 241 3 133 11 249 16 259 6 10
19 22 30 25 44 14 15 22 -80 22 -55 -1 -100 -5 -100 -9 0 -4 9 -8 19 -8 11 0
33 -11 48 -24 l28 -24 3 -156 c2 -99 0 -156 -7 -156 -5 0 -85 86 -177 190
l-168 190 -79 -2 c-43 -1 -80 -5 -83 -9z"/>
<path d="M5434 3797 c-3 -4 3 -10 13 -13 10 -3 29 -11 43 -17 l25 -13 3 -227
2 -226 -25 -17 c-14 -9 -25 -19 -25 -23 0 -4 144 -5 233 -1 20 1 3 20 -18 20
-14 0 -34 9 -45 20 -19 19 -20 33 -20 245 l0 225 25 10 c53 20 23 29 -91 27
-64 -1 -118 -5 -120 -10z"/>
<path d="M5710 3802 c0 -5 12 -14 26 -20 15 -7 33 -30 43 -55 10 -23 60 -140
111 -259 51 -120 99 -218 105 -218 7 0 47 78 90 173 142 316 161 355 184 362
48 15 15 25 -81 25 -56 0 -99 -3 -95 -6 3 -3 20 -13 39 -22 31 -16 33 -20 32
-67 0 -39 -14 -81 -64 -192 -34 -79 -66 -143 -70 -143 -7 0 -95 204 -126 294
-21 58 -18 103 6 111 48 15 12 25 -90 25 -60 0 -110 -4 -110 -8z"/>
<path d="M6300 3800 c0 -5 16 -14 35 -20 22 -7 37 -20 41 -34 3 -12 4 -117 2
-234 -3 -206 -4 -212 -25 -227 -13 -9 -23 -19 -23 -23 0 -4 81 -7 179 -7 203
0 206 1 237 81 21 56 13 65 -23 27 -41 -43 -85 -63 -157 -70 -59 -5 -65 -4
-76 17 -13 25 -19 175 -8 203 6 13 20 17 66 17 63 0 83 -12 97 -59 4 -12 10
-19 14 -15 10 13 1 184 -10 184 -5 0 -9 -5 -9 -10 0 -6 -11 -22 -25 -35 -20
-20 -34 -25 -78 -25 -53 0 -55 1 -61 31 -9 46 -7 114 4 143 9 25 13 26 88 26
90 0 116 -13 126 -62 5 -23 9 -29 17 -21 8 8 9 31 5 66 l-7 54 -205 1 c-112 1
-204 -3 -204 -8z"/>
<path d="M6773 3797 c-2 -4 4 -10 14 -13 49 -15 64 -26 74 -51 6 -17 9 -107 7
-231 -3 -186 -5 -205 -22 -217 -10 -8 -24 -16 -30 -18 -33 -12 13 -15 119 -8
73 4 112 10 100 15 -63 24 -75 47 -75 154 0 92 5 99 64 88 29 -6 38 -16 82
-98 27 -50 64 -107 81 -126 31 -33 36 -34 84 -30 28 3 58 13 67 22 15 15 14
16 -12 16 -38 0 -73 38 -129 142 l-48 88 40 38 c69 65 63 149 -15 208 l-38 29
-179 0 c-98 0 -181 -3 -184 -8z m328 -53 c55 -52 61 -129 15 -173 -20 -19 -33
-22 -87 -19 l-64 3 -3 99 c-3 118 3 130 66 123 29 -3 53 -14 73 -33z"/>
<path d="M7753 3796 c2 -6 16 -13 31 -17 56 -15 56 -13 56 -250 0 -206 -1
-220 -20 -239 -11 -11 -25 -20 -32 -20 -6 0 -9 -3 -6 -6 5 -4 159 -7 239 -4
20 0 -1 18 -30 23 -48 10 -55 35 -59 225 -5 212 1 259 34 274 13 6 24 15 24
19 0 4 -54 7 -120 6 -70 -1 -119 -6 -117 -11z"/>
<path d="M8118 3803 c-43 -2 -78 -8 -78 -13 0 -6 11 -10 25 -10 14 0 34 -9 45
-20 19 -19 20 -33 20 -240 l0 -220 -25 -16 c-14 -9 -24 -19 -21 -21 3 -3 76
-4 163 -4 142 2 163 4 209 25 105 48 164 138 171 261 4 62 1 76 -24 125 -30
60 -94 111 -161 130 -35 9 -148 10 -324 3z m281 -43 c50 -25 105 -89 119 -139
17 -54 15 -150 -3 -202 -19 -52 -58 -96 -102 -115 -44 -19 -133 -18 -161 2
-22 15 -22 19 -22 238 0 122 3 226 7 229 15 15 125 7 162 -13z"/>
<path d="M8880 3708 c-26 -57 -76 -168 -111 -248 -39 -90 -74 -155 -92 -172
l-29 -28 86 0 c47 0 88 0 91 0 14 0 4 15 -12 19 -55 10 -67 61 -30 126 l23 40
99 0 100 0 18 -39 c11 -22 21 -54 24 -72 4 -27 1 -35 -21 -49 -14 -10 -26 -20
-26 -24 0 -3 54 -6 120 -6 66 0 120 3 120 6 0 4 -13 12 -30 19 -16 7 -35 22
-43 34 -7 11 -60 128 -117 259 -56 130 -107 237 -112 237 -5 0 -31 -46 -58
-102z m74 -127 c20 -47 36 -86 36 -88 0 -2 -36 -3 -80 -3 -91 0 -92 1 -59 77
11 26 27 63 35 82 9 20 18 31 23 25 5 -5 25 -47 45 -93z"/>
<path d="M9310 3800 c-58 -4 -79 -8 -65 -14 11 -4 30 -12 43 -17 36 -14 42
-49 42 -238 0 -212 -4 -239 -37 -252 -50 -19 -10 -24 154 -19 154 5 172 7 217
30 61 31 120 97 140 157 22 64 20 168 -3 219 -24 53 -93 111 -155 129 -51 15
-166 17 -336 5z m312 -56 c98 -69 132 -229 74 -348 -37 -75 -88 -106 -174
-106 -103 0 -102 -1 -102 253 0 157 3 216 13 226 8 9 33 11 79 9 55 -3 75 -9
110 -34z"/>
<path d="M624 3626 c-17 -8 -39 -24 -48 -37 -23 -33 -21 -92 5 -120 19 -23 20
-23 10 -2 -20 40 -13 102 14 128 13 14 33 25 44 25 11 0 23 5 26 10 9 14 -14
12 -51 -4z"/>
<path d="M3430 3630 c0 -5 10 -10 23 -10 60 0 99 -72 73 -134 -17 -41 -6 -50
12 -11 17 37 15 87 -4 114 -24 33 -104 65 -104 41z"/>
<path d="M527 3538 c-21 -33 -28 -71 -17 -88 7 -11 10 -6 10 20 0 20 7 46 16
58 9 13 14 26 11 29 -3 2 -12 -6 -20 -19z"/>
<path d="M3574 3533 c9 -18 16 -47 16 -65 0 -24 3 -29 11 -21 17 17 3 77 -23
99 l-21 19 17 -32z"/>
<path d="M550 3431 c-5 -11 -10 -26 -10 -34 0 -8 -27 -40 -61 -71 -33 -31 -55
-56 -49 -56 6 0 33 21 61 47 44 41 50 44 45 23 -6 -27 -46 -276 -46 -287 0 -4
4 -3 9 2 4 6 16 62 26 125 10 63 20 117 22 120 8 9 23 -26 23 -52 0 -16 4 -28
9 -28 11 0 -1 68 -18 98 -7 13 -11 33 -9 45 3 20 4 19 22 -8 11 -17 25 -52 32
-80 10 -42 12 -45 13 -19 1 18 -11 57 -25 89 -14 31 -27 68 -28 81 -1 29 -2
29 -16 5z"/>
<path d="M3543 3421 c-1 -17 -14 -53 -28 -80 -14 -28 -25 -65 -24 -83 1 -29 3
-27 14 18 15 61 48 118 53 90 2 -9 -3 -35 -12 -57 -9 -22 -16 -52 -15 -67 1
-21 3 -17 11 16 10 45 28 57 28 20 0 -28 39 -230 45 -237 3 -2 5 4 5 14 0 18
-36 240 -46 285 -5 21 1 18 45 -23 28 -26 55 -47 62 -47 6 0 -12 21 -41 47
-29 26 -61 66 -71 90 -10 24 -20 43 -21 43 -2 0 -4 -13 -5 -29z"/>
<path d="M340 3189 c0 -10 5 -19 11 -19 11 0 4 -72 -13 -128 -13 -42 -7 -47
31 -27 39 20 81 99 63 117 -9 9 -12 7 -12 -10 0 -31 -26 -79 -50 -92 -23 -13
-23 -17 -6 87 12 77 12 82 -6 86 -13 4 -18 0 -18 -14z"/>
<path d="M3678 3122 c-4 -15 -11 -20 -22 -16 -20 7 -20 7 -2 -44 9 -25 11 -44
5 -47 -5 -4 -9 -14 -9 -23 0 -15 1 -15 16 0 14 14 15 22 5 49 -14 41 -14 49 2
49 6 0 18 -14 25 -30 15 -32 69 -68 82 -53 4 4 0 19 -7 33 -14 23 -14 24 -10
3 12 -57 -56 7 -70 65 -8 32 -10 34 -15 14z"/>
<path d="M454 3102 c-6 -4 -8 -16 -4 -26 6 -18 7 -18 13 4 7 28 6 32 -9 22z"/>
<path d="M6710 3000 c-256 -36 -432 -267 -417 -550 5 -114 30 -184 91 -268 77
-105 189 -162 332 -170 108 -6 175 8 259 52 99 52 214 181 187 208 -7 7 -28
-8 -64 -44 -60 -61 -105 -88 -193 -113 -187 -55 -371 74 -430 302 -19 71 -19
221 -1 288 37 141 128 232 247 250 143 21 320 -98 391 -262 39 -90 50 -71 43
80 -9 189 -13 199 -56 156 l-20 -20 -53 30 c-94 52 -212 75 -316 61z"/>
<path d="M8210 3001 c-270 -37 -440 -233 -440 -506 0 -104 19 -190 57 -255 88
-149 240 -230 433 -230 160 0 272 43 365 137 90 91 141 208 152 350 11 151
-29 273 -121 367 -104 107 -277 160 -446 137z m173 -80 c97 -47 178 -158 212
-291 31 -121 17 -310 -31 -402 -24 -46 -93 -117 -139 -141 -59 -32 -191 -31
-257 1 -151 75 -235 261 -225 497 8 176 60 282 167 338 50 26 62 28 140 25 64
-2 97 -9 133 -27z"/>
<path d="M5177 2993 c-5 -4 -74 -7 -155 -8 -81 0 -149 -4 -152 -9 -3 -5 17
-15 44 -22 121 -31 131 -57 131 -371 0 -133 -3 -244 -6 -247 -3 -4 -13 -4 -22
0 -14 5 -357 385 -526 582 l-63 73 -141 -3 c-121 -3 -142 -5 -145 -19 -2 -12
8 -18 37 -23 60 -9 108 -56 127 -123 14 -47 16 -101 12 -352 -4 -277 -5 -299
-25 -343 -16 -35 -32 -52 -57 -65 -68 -32 -45 -38 141 -37 141 1 178 4 178 15
0 7 -17 17 -39 21 -46 10 -88 34 -104 59 -6 10 -16 46 -22 81 -12 79 -13 555
-1 563 5 3 162 -164 347 -370 186 -206 343 -374 349 -372 6 2 13 144 17 413 9
468 11 480 79 511 25 11 39 23 37 32 -4 17 -30 26 -41 14z"/>
<path d="M5661 2883 c-32 -65 -111 -239 -175 -387 -157 -361 -175 -396 -219
-425 -20 -13 -37 -29 -37 -35 0 -8 53 -11 165 -11 150 0 165 2 165 18 0 10 -8
17 -20 17 -32 0 -100 31 -110 51 -20 36 -10 93 28 169 31 63 42 76 67 81 49
11 272 10 300 -1 28 -11 74 -97 96 -181 11 -41 10 -50 -5 -74 -10 -15 -31 -34
-47 -43 -16 -10 -29 -21 -29 -27 0 -8 340 -12 414 -6 18 2 -16 30 -43 36 -60
13 -84 56 -265 473 -194 444 -202 462 -216 462 -5 0 -36 -53 -69 -117z m40
-165 c12 -23 44 -94 71 -157 38 -88 46 -116 36 -123 -19 -12 -255 -5 -268 8
-8 8 6 52 55 163 37 83 71 151 76 151 5 0 18 -19 30 -42z"/>
<path d="M9805 2989 c-33 -5 -104 -6 -157 -2 -84 5 -98 3 -98 -10 0 -10 14
-17 44 -21 51 -8 89 -34 114 -79 15 -27 17 -67 20 -277 1 -137 -1 -251 -7
-259 -7 -12 -12 -12 -28 0 -17 12 -275 298 -525 582 l-60 68 -142 -3 c-159 -3
-181 -16 -86 -48 114 -39 123 -74 118 -480 -3 -286 -4 -307 -23 -340 -12 -19
-38 -44 -58 -55 -20 -11 -37 -24 -37 -30 0 -6 65 -10 177 -9 136 1 178 5 178
14 0 7 -22 18 -48 25 -57 14 -93 46 -108 94 -12 39 -25 570 -15 597 5 14 9 14
23 3 9 -8 158 -171 331 -364 315 -350 339 -375 354 -375 4 0 8 80 9 178 0 97
4 290 8 429 6 232 8 254 27 280 11 15 35 35 53 42 19 9 31 21 29 30 -4 19 -17
21 -93 10z"/>
<path d="M10340 2873 c-34 -71 -118 -255 -185 -410 -146 -334 -159 -360 -205
-391 -19 -13 -35 -28 -35 -34 0 -7 56 -11 165 -11 130 0 165 2 165 13 0 7 -22
18 -50 25 -102 26 -118 88 -56 218 28 58 36 67 69 77 53 14 271 13 302 -3 27
-13 72 -96 92 -170 16 -62 4 -96 -45 -122 -20 -11 -37 -24 -37 -30 0 -6 77
-10 210 -10 133 0 210 4 210 10 0 6 -24 21 -52 35 -29 14 -60 36 -70 50 -10
14 -94 199 -187 412 -189 434 -202 461 -217 465 -6 2 -39 -54 -74 -124z m100
-279 c50 -118 60 -148 49 -155 -16 -10 -191 -12 -238 -3 -20 4 -31 12 -31 24
0 18 106 267 123 288 17 21 32 -2 97 -154z"/>
<path d="M7220 2968 c0 -10 6 -18 13 -18 7 0 37 -7 66 -16 81 -24 81 -21 81
-426 0 -207 -4 -358 -11 -381 -8 -28 -19 -42 -49 -57 -22 -11 -40 -28 -40 -36
0 -14 8 -15 48 -9 58 9 213 9 296 0 50 -6 65 -4 75 9 15 17 19 15 -55 35 -50
13 -83 47 -95 98 -5 21 -9 193 -9 383 0 382 0 382 63 398 18 5 33 16 35 25 3
14 -17 16 -207 14 -193 -2 -211 -3 -211 -19z"/>
<path d="M10933 2978 c-8 -14 7 -26 40 -33 17 -3 45 -11 60 -17 55 -21 57 -34
57 -427 0 -212 -4 -370 -10 -386 -5 -14 -26 -35 -45 -46 -19 -12 -35 -28 -35
-36 0 -13 10 -14 63 -7 34 4 143 6 242 4 291 -7 297 -6 335 16 51 29 100 116
100 176 0 26 -4 48 -8 48 -5 0 -21 -17 -37 -37 -68 -91 -159 -132 -305 -140
l-98 -6 -18 29 c-18 26 -19 54 -19 404 0 417 1 421 64 433 18 4 31 13 31 21 0
13 -31 15 -206 13 -113 -1 -208 -5 -211 -9z"/>
<path d="M3647 2963 c-12 -21 -16 -63 -7 -63 5 0 10 10 10 23 0 13 5 28 12 35
9 9 9 12 1 12 -7 0 -14 -3 -16 -7z"/>
<path d="M210 2614 c0 -8 5 -12 10 -9 6 3 10 2 10 -3 0 -6 7 -13 15 -16 13 -5
12 -1 -2 19 -21 28 -33 32 -33 9z"/>
<path d="M3867 2605 c-10 -14 -16 -25 -14 -25 7 0 47 37 47 44 0 13 -16 4 -33
-19z"/>
<path d="M3895 2560 c-4 -17 -17 -38 -29 -48 -22 -15 -22 -19 -8 -40 8 -12 18
-37 22 -55 7 -27 8 -28 9 -7 0 14 -6 38 -14 54 -14 27 -14 31 4 50 19 20 39
76 28 76 -3 0 -8 -14 -12 -30z"/>
<path d="M210 2554 c0 -6 9 -23 21 -37 16 -21 18 -31 10 -46 -6 -11 -11 -26
-11 -33 0 -7 8 3 18 22 17 33 17 36 1 50 -9 8 -21 24 -27 35 -6 11 -12 15 -12
9z"/>
<path d="M3477 2465 c-8 -41 27 -122 46 -106 11 9 16 3 26 -29 6 -21 24 -49
39 -60 l27 -22 11 68 10 69 18 -40 c16 -38 18 -39 31 -21 8 11 22 40 31 65 23
60 30 67 43 42 7 -12 22 -21 35 -21 24 0 48 -22 60 -55 6 -16 9 -17 16 -5 11
17 13 37 4 27 -4 -3 -15 5 -26 18 -11 14 -28 25 -39 25 -10 0 -28 9 -39 20
-22 22 -50 17 -50 -9 0 -9 -10 -36 -21 -61 -17 -37 -22 -42 -30 -29 -5 9 -10
27 -12 40 -2 13 -11 25 -20 27 -14 3 -17 -5 -18 -40 -1 -24 -4 -56 -8 -72 -5
-24 -8 -26 -17 -15 -15 19 -34 77 -34 105 0 34 -19 39 -30 8 -14 -35 -21 -26
-35 44 -10 51 -12 54 -18 27z"/>
<path d="M616 2431 c-8 -59 -22 -73 -36 -36 -11 30 -30 25 -30 -9 0 -28 -19
-86 -34 -105 -9 -11 -12 -9 -17 15 -4 16 -7 48 -8 72 -1 30 -5 42 -16 42 -8 0
-15 -8 -15 -17 -1 -10 -7 -29 -15 -43 l-14 -25 -20 45 c-11 25 -21 39 -21 31
0 -16 41 -91 50 -91 4 0 14 17 22 38 l15 37 7 -67 8 -68 29 15 c21 12 32 27
41 60 9 33 15 42 24 34 9 -8 17 -3 27 18 20 40 27 76 18 91 -5 9 -11 -4 -15
-37z"/>
<path d="M350 2455 c0 -9 -19 -24 -44 -34 -24 -11 -46 -27 -49 -36 -4 -9 -12
-13 -18 -9 -7 4 -10 1 -7 -6 6 -19 28 -25 28 -7 0 20 33 47 58 47 12 0 27 9
34 19 9 15 15 17 25 9 7 -6 13 -6 13 -2 0 5 -9 15 -20 22 -17 10 -20 10 -20
-3z"/>
<path d="M3700 1930 c0 -27 33 -70 58 -76 15 -4 39 -21 55 -38 l27 -31 -22 37
c-13 20 -30 37 -38 38 -25 0 -60 30 -60 50 0 18 3 18 37 -6 36 -24 64 -20 48
6 -6 9 -9 9 -15 0 -6 -10 -15 -8 -35 9 -30 23 -55 28 -55 11z"/>
<path d="M4267 1767 c-71 -7 -125 -15 -121 -19 4 -5 16 -8 26 -8 10 0 27 -9
38 -20 19 -19 20 -33 20 -239 l0 -219 -27 -21 -28 -20 156 -1 c187 0 226 10
304 82 118 108 130 284 25 389 -78 79 -169 96 -393 76z m241 -48 c50 -25 97
-84 113 -143 16 -60 8 -174 -17 -220 -11 -22 -37 -54 -58 -70 -35 -28 -44 -31
-113 -31 -106 0 -103 -8 -103 257 0 217 0 219 23 228 31 14 103 4 155 -21z"/>
<path d="M5684 1769 c-69 -20 -127 -71 -164 -143 -31 -61 -35 -78 -35 -145 1
-117 50 -202 144 -247 54 -26 152 -30 209 -9 49 19 142 98 142 121 0 22 -12
16 -49 -21 -40 -42 -122 -71 -172 -61 -70 13 -137 75 -165 153 -16 47 -18 158
-3 204 52 153 203 173 318 43 23 -26 44 -58 47 -71 4 -13 10 -23 16 -23 9 0 1
169 -9 180 -2 2 -8 -2 -13 -10 -8 -13 -14 -13 -42 -1 -86 35 -106 40 -148 40
-25 -1 -59 -5 -76 -10z"/>
<path d="M6255 1771 c-138 -36 -217 -141 -217 -288 0 -63 4 -84 29 -131 50
-99 148 -148 278 -140 86 6 138 31 193 93 51 58 72 119 72 207 0 157 -94 255
-253 263 -40 3 -85 1 -102 -4z m158 -57 c27 -20 52 -50 72 -89 27 -53 30 -68
30 -149 -1 -73 -5 -99 -22 -132 -25 -47 -73 -91 -109 -100 -40 -10 -114 2
-143 23 -138 101 -144 398 -10 467 51 25 129 17 182 -20z"/>
<path d="M7345 1766 c-97 -31 -162 -91 -191 -179 -22 -65 -15 -176 14 -233 50
-98 151 -150 276 -142 162 11 268 125 270 293 1 94 -22 153 -81 205 -73 64
-190 87 -288 56z m133 -31 c50 -21 79 -50 110 -110 24 -45 27 -61 27 -151 0
-94 -2 -104 -30 -149 -51 -82 -141 -108 -226 -65 -43 23 -92 90 -109 150 -15
55 -12 185 5 228 41 96 130 135 223 97z"/>
<path d="M8757 1773 c-2 -2 -62 -4 -134 -5 -128 -3 -168 -14 -108 -30 53 -14
55 -24 55 -251 0 -208 -6 -247 -35 -247 -8 0 -15 -4 -15 -10 0 -6 64 -10 173
-10 162 0 177 2 218 23 74 39 110 138 74 207 -18 35 -61 70 -86 70 -11 0 -19
5 -19 10 0 6 4 10 9 10 4 0 20 12 35 26 21 21 26 36 26 73 0 54 -18 84 -63
108 -29 15 -123 34 -130 26z m50 -49 c36 -23 56 -62 57 -110 1 -63 -25 -84
-104 -84 -91 0 -90 -2 -90 106 0 89 1 95 23 104 27 11 84 3 114 -16z m35 -245
c40 -20 58 -51 58 -101 0 -92 -37 -128 -135 -128 -84 0 -95 15 -95 139 0 70 4
101 13 105 19 9 134 -2 159 -15z"/>
<path d="M9547 1683 c-25 -54 -75 -165 -111 -246 -36 -82 -72 -160 -81 -173
-19 -30 -72 -33 -106 -5 -24 19 -24 22 -27 227 -2 114 -1 218 3 231 3 13 16
25 30 29 58 14 17 24 -95 22 -117 -3 -151 -12 -90 -25 56 -11 60 -26 60 -256
l0 -209 -31 -29 -31 -29 216 0 c137 0 216 4 216 10 0 6 -8 10 -18 10 -31 0
-62 29 -62 58 0 15 11 45 23 67 l23 40 99 0 100 0 22 -45 c31 -62 29 -94 -4
-118 l-28 -21 118 -3 c117 -3 150 4 105 21 -40 15 -56 43 -149 256 -88 202
-126 285 -132 285 -2 0 -24 -44 -50 -97z m67 -138 c19 -44 32 -83 30 -87 -9
-14 -144 -9 -150 5 -3 8 5 36 16 63 12 27 28 64 36 83 18 43 24 37 68 -64z"/>
<path d="M4775 1761 c3 -5 19 -12 35 -16 17 -4 35 -15 41 -26 6 -13 9 -98 7
-235 l-3 -216 -30 -24 -30 -24 125 -2 c247 -5 236 -6 271 28 22 22 32 44 36
75 l5 44 -31 -36 c-34 -41 -85 -65 -158 -74 -73 -10 -85 4 -91 103 -2 44 -2
92 2 106 6 25 10 26 70 26 66 0 96 -17 96 -53 0 -9 5 -19 10 -22 6 -4 10 28
10 89 0 53 -3 96 -6 96 -3 0 -20 -16 -38 -35 -28 -30 -40 -35 -78 -35 -24 0
-49 5 -56 12 -14 14 -16 156 -2 178 7 11 28 15 82 14 86 0 117 -14 125 -55 6
-30 18 -38 25 -16 3 6 3 33 0 60 l-4 47 -210 0 c-125 0 -207 -4 -203 -9z"/>
<path d="M6650 1758 c0 -4 12 -11 28 -14 62 -15 62 -16 62 -255 0 -184 -2
-220 -16 -233 -8 -9 -20 -16 -25 -16 -5 0 -9 -4 -9 -9 0 -6 74 -10 176 -10
l176 -1 34 34 c26 26 34 42 34 70 l0 36 -39 -39 c-47 -47 -95 -64 -171 -59
l-55 3 -7 45 c-10 71 -9 376 2 405 6 15 19 29 30 32 51 13 9 22 -100 21 -66
-1 -120 -5 -120 -10z"/>
<path d="M7755 1762 c-9 -10 7 -22 30 -22 14 0 32 -11 44 -26 19 -24 21 -40
20 -148 0 -66 -4 -159 -8 -205 -6 -79 -8 -85 -41 -112 l-34 -29 97 0 c93 0
125 11 72 24 -44 11 -55 51 -55 204 0 76 3 142 7 145 3 4 36 -59 73 -141 83
-182 108 -232 119 -232 4 0 20 26 34 58 84 186 149 314 156 306 5 -5 11 -76
14 -158 l7 -148 -30 -28 -29 -27 120 0 c65 -1 119 2 119 6 0 4 -13 12 -29 18
-54 20 -59 41 -67 244 -4 102 -4 198 0 213 5 19 19 33 44 44 l37 17 -64 3
c-52 2 -68 -1 -82 -15 -9 -10 -56 -102 -105 -205 -48 -104 -90 -188 -94 -188
-4 0 -44 82 -89 183 -113 247 -96 227 -186 225 -41 0 -77 -3 -80 -6z"/>
<path d="M3610 1489 c0 -20 50 -97 84 -128 40 -38 31 -13 -15 36 -22 24 -47
58 -54 76 -8 18 -14 25 -15 16z"/>
<path d="M481 1463 c-7 -17 -30 -47 -52 -69 -21 -21 -39 -42 -39 -48 0 -15 59
45 87 87 13 21 23 43 21 49 -2 6 -10 -2 -17 -19z"/>
<path d="M936 1435 c-14 -119 -80 -247 -158 -304 -25 -19 -35 -31 -25 -31 21
0 81 53 120 105 17 22 27 31 23 20 -14 -37 -46 -168 -46 -187 0 -36 18 -17 24
27 4 25 18 77 32 117 28 84 28 79 9 72 -11 -5 -11 4 5 49 18 52 38 187 28 187
-3 0 -8 -25 -12 -55z"/>
<path d="M3166 1430 c4 -36 14 -91 24 -122 15 -49 15 -56 2 -50 -12 4 -14 1
-8 -14 26 -64 46 -132 52 -175 4 -27 10 -49 15 -49 14 0 10 39 -11 120 -11 41
-20 76 -20 77 0 1 26 -25 58 -57 32 -33 67 -60 77 -60 14 0 8 8 -22 30 -73 54
-129 159 -159 300 l-13 65 5 -65z"/>
<path d="M972 1410 c4 -70 36 -162 45 -133 2 6 -3 26 -13 44 -9 18 -18 59 -19
92 -2 32 -7 62 -11 66 -3 3 -4 -28 -2 -69z"/>
<path d="M3132 1480 c-2 -3 -4 -32 -6 -65 -1 -33 -11 -77 -21 -98 -9 -21 -15
-40 -11 -44 3 -3 15 15 26 40 16 36 20 62 17 110 -2 34 -4 60 -5 57z"/>
<path d="M637 1423 c-6 -16 -14 -30 -18 -33 -3 -3 -9 -22 -12 -43 -3 -22 -11
-45 -18 -53 -10 -12 -13 -12 -24 3 -11 15 -14 13 -24 -22 -6 -22 -11 -47 -11
-56 0 -18 -37 -69 -50 -69 -5 0 -12 10 -15 21 -6 19 -9 17 -25 -17 -15 -35
-62 -74 -88 -74 -5 0 -7 12 -4 28 6 34 -3 26 -12 -10 -6 -25 -4 -28 20 -28 17
0 40 14 66 40 30 29 44 37 53 30 16 -14 61 52 70 103 5 31 9 36 20 27 18 -15
55 33 55 71 0 15 5 31 10 34 6 3 10 15 10 26 0 11 5 17 10 14 6 -3 10 3 10 14
0 29 -8 26 -23 -6z"/>
<path d="M1036 1394 c3 -17 1 -41 -6 -53 -8 -17 -9 -26 0 -36 6 -8 14 -24 18
-37 6 -20 11 -23 32 -17 21 6 22 7 4 8 -23 1 -60 66 -44 76 13 8 13 56 0 75
-7 11 -8 6 -4 -16z"/>
<path d="M3332 1347 c29 -25 48 -57 48 -83 0 -16 -1 -16 -20 1 -18 16 -20 16
-20 2 0 -18 34 -57 49 -57 5 0 15 -15 21 -34 6 -19 18 -40 26 -46 20 -18 18
-27 -10 -34 -17 -4 -23 -11 -19 -24 2 -10 -5 -29 -16 -43 l-21 -24 -30 35 -30
34 0 -29 c0 -30 -47 -135 -60 -135 -4 0 -11 15 -17 33 -6 21 -15 31 -25 29
-24 -4 -30 13 -19 55 6 20 8 39 6 41 -2 3 -21 -10 -41 -27 -20 -18 -38 -30
-41 -27 -5 5 0 15 42 72 12 16 13 27 6 48 -14 36 -64 37 -87 1 -19 -30 -35
-32 -57 -7 -20 22 -23 57 -4 46 7 -5 7 -1 -2 10 -13 15 -15 16 -23 1 -5 -8 -7
-24 -3 -34 9 -30 -5 -71 -24 -71 -10 0 -26 7 -37 15 -10 8 -31 15 -46 15 -22
0 -27 5 -30 28 -2 21 -8 27 -28 27 -22 0 -25 -4 -24 -32 2 -29 -2 -34 -35 -43
-58 -16 -81 -13 -81 11 0 14 -5 19 -17 17 -11 -2 -18 -12 -18 -28 0 -36 56
-47 129 -26 68 20 99 20 138 0 16 -8 45 -16 64 -17 21 -1 34 -7 34 -15 0 -10
9 -12 33 -7 17 4 36 11 42 16 12 11 25 12 25 1 0 -21 -43 -56 -78 -62 -31 -6
-32 -8 -10 -9 16 0 57 14 93 33 36 19 65 29 65 22 0 -23 -107 -151 -154 -183
-58 -40 -155 -71 -166 -53 -5 8 -17 5 -43 -10 -32 -19 -37 -20 -37 -6 0 19 4
19 -45 0 -38 -14 -38 -15 -7 -10 20 4 31 2 27 -4 -8 -13 21 -13 47 1 12 6 45
13 74 15 77 4 154 46 225 121 32 35 59 68 59 73 0 6 5 10 10 10 6 0 10 -7 10
-16 0 -10 6 -13 18 -10 14 5 20 -2 27 -26 14 -45 31 -45 54 1 20 39 21 40 48
26 15 -8 35 -25 44 -37 l17 -22 13 27 c9 20 17 26 28 21 68 -30 131 -7 131 48
0 26 -3 29 -27 26 -22 -2 -28 -8 -27 -25 1 -32 -35 -30 -71 2 -19 19 -25 32
-21 48 3 12 6 28 6 35 0 6 9 12 20 12 25 0 26 25 1 51 -10 11 -21 33 -24 48
-4 18 -14 31 -29 35 -18 5 -20 8 -9 15 20 13 6 69 -26 103 -15 15 -32 28 -37
28 -6 0 1 -10 16 -23z m-188 -219 c16 -27 -3 -50 -57 -69 l-46 -17 -25 27
c-30 31 -26 42 13 35 19 -4 32 1 51 21 27 28 47 29 64 3z m241 -128 c12 10 20
7 46 -14 18 -15 43 -26 60 -26 26 0 30 4 27 22 -2 15 3 24 15 26 15 3 18 -2
15 -24 -2 -21 -11 -31 -31 -38 -27 -10 -35 -8 -99 19 -14 5 -18 2 -18 -13 0
-31 -16 -35 -28 -7 -7 15 -20 25 -32 25 -15 0 -20 7 -20 25 0 25 1 25 25 9 20
-13 28 -14 40 -4z"/>
<path d="M321 1338 c0 -9 2 -23 5 -32 5 -13 9 -12 27 4 22 22 16 40 -7 21 -11
-10 -15 -8 -19 6 -4 15 -5 15 -6 1z"/>
<path d="M3744 1324 c3 -9 6 -18 6 -20 0 -3 5 -2 10 1 6 3 10 1 10 -4 0 -6 5
-11 10 -11 6 0 10 12 10 28 0 19 -3 23 -9 13 -6 -9 -11 -10 -15 -2 -11 17 -29
13 -22 -5z"/>
<path d="M331 1226 c-1 -30 2 -37 14 -33 11 5 13 0 11 -21 -2 -15 -1 -20 1
-12 3 8 10 18 15 21 12 8 1 49 -13 49 -5 0 -10 -6 -10 -12 -1 -7 -5 1 -9 17
-7 29 -8 29 -9 -9z"/>
<path d="M3771 1244 c0 -11 3 -14 6 -6 3 7 2 16 -1 19 -3 4 -6 -2 -5 -13z"/>
<path d="M1114 1242 c3 -5 -10 -16 -29 -25 -38 -18 -50 -57 -17 -57 15 0 15 2
2 10 -13 9 -12 12 4 25 11 8 26 15 33 15 7 0 17 9 23 20 9 16 8 20 -5 20 -9 0
-14 -4 -11 -8z"/>
<path d="M3735 1209 c-4 -12 -3 -24 2 -28 6 -3 13 -13 17 -21 3 -8 4 -3 1 12
-4 22 -2 26 10 22 18 -7 20 7 3 24 -17 17 -26 15 -33 -9z"/>
<path d="M1100 1185 c-11 -13 -10 -14 4 -9 19 7 19 4 7 -29 -15 -38 -48 -44
-72 -13 -20 26 -42 32 -73 20 -23 -9 -21 -69 3 -86 17 -12 39 -58 27 -58 -3 0
-22 14 -41 32 l-36 31 3 -49 c3 -43 1 -49 -16 -49 -14 0 -22 -10 -28 -33 -5
-17 -12 -32 -16 -32 -13 0 -53 81 -60 123 l-8 42 -19 -33 c-22 -36 -44 -38
-61 -4 -18 36 -25 38 -18 5 5 -25 1 -34 -21 -52 -36 -28 -63 -27 -67 2 -4 32
-52 31 -56 -1 -6 -37 24 -62 74 -62 24 0 46 5 49 10 10 17 21 11 34 -17 l13
-28 19 24 c11 13 31 30 45 37 23 12 26 11 44 -19 11 -18 20 -35 20 -39 0 -21
23 -4 36 27 9 24 19 33 29 29 9 -4 15 0 15 10 0 9 5 16 10 16 6 0 10 -4 10 -8
0 -5 25 -36 55 -70 67 -73 162 -125 236 -128 26 -2 57 -7 68 -13 25 -14 54
-14 46 -1 -8 12 -8 12 33 1 36 -11 44 -5 10 8 -62 23 -71 24 -65 7 8 -21 1
-20 -40 5 -26 16 -37 19 -43 10 -8 -14 -72 -1 -124 26 -61 32 -196 179 -196
214 0 4 30 -9 66 -28 37 -19 76 -32 88 -30 17 3 16 5 -6 6 -26 1 -78 42 -78
61 0 13 1 13 43 -5 44 -18 57 -19 57 -2 0 8 15 13 40 14 22 1 50 9 62 17 28
20 66 20 134 0 73 -21 129 -10 129 26 0 30 -25 39 -32 11 -6 -24 -28 -26 -84
-11 -33 9 -37 14 -35 43 1 28 -2 32 -24 32 -20 0 -26 -6 -28 -27 -3 -23 -8
-28 -30 -28 -15 0 -36 -7 -46 -15 -44 -34 -73 -3 -60 63 7 34 -8 49 -26 27z
m-69 -61 c19 -21 30 -24 56 -19 40 7 41 0 7 -36 -25 -26 -26 -27 -67 -11 -53
20 -67 30 -67 51 0 19 19 41 35 41 6 0 22 -12 36 -26z m-241 -129 c0 -15 -6
-25 -14 -25 -8 0 -23 -11 -34 -25 -21 -26 -32 -24 -32 7 0 22 -8 22 -34 3 -26
-20 -81 -19 -100 1 -22 22 -21 57 2 52 11 -3 16 -12 15 -26 -4 -33 52 -30 89
5 23 22 30 24 43 13 12 -10 19 -10 37 3 30 21 28 21 28 -8z"/>
<path d="M1196 1001 c-10 -11 -32 -22 -50 -24 -31 -4 -30 -4 5 -5 25 -2 42 4
55 19 l19 21 17 -21 c9 -12 23 -20 30 -19 8 2 14 -8 16 -24 4 -36 23 -35 64 1
18 15 40 31 48 34 12 4 12 6 -2 6 -10 1 -31 -12 -48 -29 -38 -37 -46 -37 -53
-2 -4 16 -18 34 -37 45 -40 21 -43 21 -64 -2z"/>
<path d="M1505 1011 c-6 -5 -23 -12 -40 -14 -23 -3 -21 -4 8 -3 38 2 47 -7 25
-21 -7 -4 -13 -18 -14 -30 0 -22 0 -22 29 3 28 23 36 25 91 19 34 -4 63 -9 65
-11 2 -2 -4 -13 -14 -24 -18 -19 -17 -20 2 -20 11 0 30 -11 43 -25 31 -33 19
-45 -59 -54 -69 -8 -79 -14 -62 -35 20 -24 -32 -32 -90 -14 -39 13 -47 13 -42
2 3 -8 -1 -14 -8 -15 -8 0 -5 -4 6 -9 30 -13 35 -12 28 6 -5 14 -3 15 17 4 13
-7 41 -10 64 -7 l41 5 -45 -20 c-25 -11 -83 -28 -130 -38 -144 -30 -168 -39
-328 -122 -87 -45 -158 -76 -160 -70 -2 6 1 20 7 31 19 35 13 67 -14 79 -39
18 -93 15 -111 -7 -16 -18 -17 -18 -65 0 -62 24 -111 24 -137 2 -18 -17 -19
-27 -13 -170 6 -151 6 -152 36 -183 49 -52 81 -64 170 -63 100 0 208 31 372
107 71 33 166 67 238 85 92 24 152 48 257 101 76 39 149 70 163 70 14 0 36
-10 48 -23 13 -12 31 -21 40 -19 12 3 17 -3 17 -22 0 -25 -1 -26 -24 -11 -35
24 -59 10 -53 -31 l6 -33 -50 19 c-62 25 -101 25 -122 2 -22 -24 -21 -45 1
-65 28 -25 70 -22 83 7 11 23 12 23 57 10 62 -19 74 -18 117 12 41 27 72 26
60 -4 -36 -83 -39 -99 -27 -141 23 -76 85 -90 123 -28 24 41 24 93 -1 142 -22
44 -13 69 18 47 58 -41 79 -46 136 -30 53 14 56 14 61 -3 7 -22 44 -34 74 -24
29 9 38 51 16 75 -23 25 -61 25 -125 0 l-51 -20 11 21 c7 11 9 26 7 33 -8 20
-46 26 -61 10 -21 -20 -28 -17 -24 9 2 12 10 22 18 22 8 0 24 10 37 23 12 12
33 22 46 22 29 0 98 -29 178 -76 69 -41 107 -55 254 -95 61 -17 171 -57 245
-91 172 -77 302 -112 384 -103 71 8 99 21 145 69 l34 35 1 152 c1 140 0 152
-19 165 -27 19 -75 17 -133 -5 -48 -19 -48 -19 -60 0 -15 24 -87 26 -120 3
-26 -18 -28 -44 -6 -85 15 -30 15 -31 -8 -24 -13 4 -86 40 -163 80 -140 73
-182 88 -329 120 -43 9 -96 24 -118 34 l-39 16 48 0 c26 0 56 4 66 9 14 7 16
5 11 -10 -5 -18 -5 -18 10 0 25 31 19 36 -26 20 -53 -19 -116 -11 -97 12 17
21 7 26 -63 36 -34 4 -67 13 -72 18 -13 13 31 60 56 60 22 0 23 7 1 28 -16 16
-14 17 23 23 28 4 31 7 12 8 -14 0 -34 4 -44 8 -15 5 -16 2 -11 -24 5 -26 2
-34 -18 -47 -37 -25 -52 -20 -106 34 -55 55 -93 65 -122 32 -20 -22 -21 -36
-4 -54 11 -11 -11 -13 -129 -13 -78 0 -136 4 -128 8 19 11 18 42 -2 61 -30 31
-69 20 -123 -34 -54 -54 -69 -59 -106 -34 -19 12 -23 22 -19 42 l5 27 -80 0
c-78 0 -80 1 -74 23 5 23 -6 29 -22 13z m409 -46 c31 -32 -3 -58 -43 -33 -16
10 -25 6 -62 -25 -23 -20 -50 -37 -58 -36 -13 0 -12 3 4 14 11 8 40 32 63 55
47 43 71 49 96 25z m394 -37 c33 -29 58 -54 57 -56 -6 -6 -49 20 -74 44 -25
25 -46 30 -56 14 -3 -5 -15 -10 -26 -10 -22 0 -26 29 -7 48 22 22 46 13 106
-40z m-788 38 c0 -3 -4 -8 -10 -11 -5 -3 -10 -1 -10 4 0 6 5 11 10 11 6 0 10
-2 10 -4z m361 -55 l21 -19 -31 -7 c-18 -4 -59 -17 -91 -30 -68 -27 -72 -17
-6 14 24 12 51 30 61 41 22 24 21 24 46 1z m405 -7 c46 -40 146 -84 192 -84
43 0 48 -5 33 -29 -8 -12 -21 -9 -76 18 -36 18 -102 45 -146 61 -82 28 -83 31
-33 59 0 1 14 -11 30 -25z m-101 -29 c98 -22 153 -43 280 -105 93 -45 147 -64
238 -84 117 -25 181 -51 356 -145 77 -42 181 -71 249 -71 53 0 130 24 157 50
l22 21 7 -108 c8 -127 2 -142 -85 -186 -49 -26 -61 -28 -129 -24 -87 6 -204
44 -360 116 -59 28 -165 66 -235 85 -71 19 -156 49 -189 67 -169 89 -211 107
-283 125 -99 23 -217 23 -316 0 -72 -18 -114 -36 -283 -125 -33 -18 -118 -48
-188 -67 -71 -19 -181 -59 -245 -88 -181 -83 -272 -111 -366 -111 -67 0 -87 4
-124 25 -76 43 -83 59 -75 182 l7 106 44 -32 c42 -29 49 -31 136 -30 112 0
171 19 320 102 109 61 180 86 327 118 55 12 118 35 180 67 224 115 396 150
555 112z m-505 -60 c0 -2 -14 -12 -31 -20 -24 -13 -34 -14 -45 -4 -25 20 -15
29 31 29 25 0 45 -2 45 -5z m-764 -200 c16 -13 17 -16 4 -25 -18 -12 -35 -8
-36 8 -3 25 -5 27 -15 12 -7 -11 -12 -12 -15 -3 -3 7 -12 9 -21 6 -11 -4 -14
-2 -9 5 10 17 68 15 92 -3z m2370 3 c5 -7 2 -9 -9 -5 -9 3 -18 1 -21 -6 -3 -9
-8 -8 -15 3 -10 15 -12 13 -15 -12 -1 -7 -10 -11 -21 -10 -30 6 -32 12 -11 28
24 17 82 19 92 2z m-2528 -25 c42 -14 98 -27 125 -27 26 0 47 -1 47 -2 0 -18
-27 -54 -44 -58 -41 -11 -147 -6 -184 9 -63 27 -99 74 -75 98 13 13 55 7 131
-20z m1412 11 l35 -6 -31 -13 c-35 -14 -64 -50 -64 -77 0 -10 -12 -25 -26 -35
-23 -15 -29 -15 -52 -2 -15 8 -29 28 -34 46 -9 33 -50 73 -76 73 -32 0 -1 12
50 20 52 7 130 5 198 -6z m1318 -7 c9 -48 -81 -97 -178 -97 -85 0 -105 6 -119
36 -6 14 -11 26 -11 27 0 2 24 3 53 4 28 1 84 13 122 27 80 30 128 31 133 3z
m-1530 -33 c27 -19 31 -88 5 -116 -30 -34 -93 -18 -93 24 0 22 26 24 34 3 9
-23 35 -18 48 10 15 32 -3 75 -31 75 -11 0 -23 5 -26 10 -10 16 38 12 63 -6z
m257 6 c-3 -5 -15 -10 -26 -10 -28 0 -46 -43 -31 -75 13 -28 39 -33 48 -10 9
22 34 18 34 -5 0 -21 -27 -40 -58 -40 -23 0 -47 26 -55 59 -6 26 15 76 35 84
23 10 59 7 53 -3z m-488 -134 c-4 -10 0 -12 15 -8 16 4 19 1 16 -14 -4 -24
-46 -31 -54 -10 -8 20 2 46 17 46 6 0 9 -6 6 -14z m678 -17 c0 -19 -5 -24 -25
-24 -16 0 -26 6 -28 18 -2 10 3 17 12 17 9 0 16 5 16 11 0 6 6 9 13 7 6 -3 12
-16 12 -29z m-301 -60 c10 -51 7 -83 -10 -107 -19 -27 -45 -28 -69 -2 -17 19
-17 19 14 7 42 -16 52 0 49 76 -3 62 6 76 16 26z m-26 -24 c7 -58 -25 -103
-42 -59 -8 20 -8 79 0 86 14 15 39 -1 42 -27z"/>
<path d="M1997 843 c-4 -3 -7 -42 -7 -85 l0 -78 35 0 c25 0 35 4 35 16 0 11
-6 14 -20 9 -16 -5 -20 -2 -20 14 0 14 6 21 20 21 11 0 20 5 20 10 0 6 -9 10
-20 10 -16 0 -20 7 -20 35 0 24 5 35 15 35 8 0 15 5 15 10 0 11 -43 14 -53 3z"/>
<path d="M2088 844 c-12 -11 -10 -152 2 -159 6 -3 14 4 19 17 6 13 10 19 11
13 0 -5 9 1 20 15 l20 25 0 -42 c0 -24 5 -43 10 -43 14 0 13 157 -1 165 -5 4
-15 -7 -22 -24 -15 -40 -21 -39 -38 5 -8 20 -17 32 -21 28z"/>
<path d="M1910 750 c0 -44 2 -80 4 -80 18 0 39 17 51 41 29 56 13 119 -30 119
-24 0 -25 -2 -25 -80z m40 12 c0 -20 -5 -44 -10 -52 -7 -11 -10 2 -10 43 0 36
4 56 10 52 6 -3 10 -23 10 -43z"/>
<path d="M2200 751 c0 -44 5 -83 10 -86 6 -4 10 23 10 74 0 44 -4 83 -10 86
-6 4 -10 -23 -10 -74z"/>
<path d="M1832 789 c-5 -13 -12 -42 -16 -64 -4 -22 -9 -48 -12 -57 -4 -12 0
-18 10 -18 9 0 16 7 16 15 0 18 31 20 48 3 17 -17 16 6 -4 73 -20 67 -31 80
-42 48z m28 -74 c0 -8 -4 -15 -10 -15 -5 0 -10 7 -10 15 0 8 5 15 10 15 6 0
10 -7 10 -15z"/>
<path d="M2250 743 c-11 -36 -20 -69 -20 -74 0 -13 28 -11 32 2 5 14 38 0 38
-17 0 -15 39 -39 48 -29 4 4 -1 11 -11 16 -9 6 -17 19 -17 30 0 11 5 17 10 14
6 -3 10 -2 10 4 0 5 -6 14 -14 18 -7 4 -17 23 -21 40 -6 29 -4 32 12 26 15 -6
16 -4 5 9 -7 9 -21 18 -32 21 -17 4 -23 -5 -40 -60z m40 -40 c0 -7 -6 -10 -14
-7 -8 3 -12 13 -9 25 5 16 8 18 14 7 5 -7 9 -18 9 -25z"/>
<path d="M1732 763 c-31 -60 -19 -137 21 -131 22 3 39 48 18 48 -6 0 -11 -4
-11 -10 0 -17 -17 -11 -22 8 -8 30 7 67 25 64 11 -2 17 4 17 18 0 25 -35 27
-48 3z"/>
<path d="M1652 683 c-21 -97 -24 -123 -16 -123 5 0 15 9 22 20 7 12 20 19 30
18 13 -2 17 3 15 23 -2 40 -23 109 -33 109 -4 0 -13 -21 -18 -47z m24 -60
c-10 -10 -19 5 -10 18 6 11 8 11 12 0 2 -7 1 -15 -2 -18z"/>
<path d="M2407 713 c-4 -3 -7 -30 -7 -59 0 -46 3 -56 25 -70 14 -9 28 -14 31
-11 3 3 9 27 14 54 l8 48 1 -57 c1 -71 29 -106 59 -76 14 14 16 124 2 133 -6
4 -10 -17 -10 -54 0 -34 -4 -61 -10 -61 -6 0 -10 29 -10 66 0 61 -2 66 -20 61
-13 -3 -21 1 -25 14 -6 18 -44 27 -58 12z m45 -48 c4 -33 -6 -55 -24 -55 -4 0
-8 20 -8 45 0 56 26 64 32 10z"/>
<path d="M2360 680 c0 -5 5 -10 10 -10 6 0 10 5 10 10 0 6 -4 10 -10 10 -5 0
-10 -4 -10 -10z"/>
<path d="M1452 648 c-21 -21 -14 -57 12 -70 42 -19 45 -58 5 -58 -12 0 -19 -5
-17 -12 7 -21 41 -22 55 -2 22 30 15 62 -17 86 -36 26 -37 34 -9 41 12 3 18
10 14 16 -8 14 -28 14 -43 -1z"/>
<path d="M2596 626 c-39 -93 -43 -133 -11 -106 18 15 45 7 45 -14 0 -7 11 -16
25 -18 31 -6 43 8 15 17 -11 4 -20 15 -20 26 0 11 4 18 9 14 5 -3 12 -1 15 4
4 5 -3 12 -14 16 -25 8 -29 65 -4 65 23 0 8 17 -21 22 -22 5 -28 0 -39 -26z
m20 -73 c-11 -11 -19 6 -11 24 8 17 8 17 12 0 3 -10 2 -21 -1 -24z"/>
<path d="M1367 633 c-8 -13 -28 -155 -23 -161 3 -3 12 1 21 8 8 7 25 10 40 6
31 -8 32 2 5 80 -21 61 -34 82 -43 67z m27 -95 c5 -21 3 -28 -9 -28 -17 0 -18
4 -9 38 8 27 9 26 18 -10z"/>
<path d="M2700 555 c0 -84 5 -96 28 -73 9 9 12 9 12 0 0 -7 3 -12 8 -12 4 0 8
31 9 70 2 71 -10 100 -43 100 -11 0 -14 -18 -14 -85z m37 8 c-3 -10 -5 -4 -5
12 0 17 2 24 5 18 2 -7 2 -21 0 -30z"/>
<path d="M1555 609 c-4 -6 -5 -12 -2 -15 7 -7 37 7 37 17 0 13 -27 11 -35 -2z"/>
<path d="M2774 543 c4 -42 9 -80 12 -85 3 -4 17 -8 32 -7 l27 0 -22 16 c-28
19 -30 43 -3 43 11 0 20 4 20 9 0 5 -9 11 -20 14 -14 3 -20 14 -20 32 0 22 3
25 20 20 11 -4 20 -2 20 4 0 13 -33 31 -56 31 -15 0 -16 -8 -10 -77z"/>
<path d="M1270 532 c0 -43 3 -81 6 -85 8 -7 54 13 54 25 0 4 -9 8 -20 8 -18 0
-20 7 -20 65 0 37 -4 65 -10 65 -6 0 -10 -33 -10 -78z"/>
<path d="M1227 583 c-4 -3 -4 -34 -1 -68 4 -42 3 -65 -5 -69 -8 -5 -11 11 -11
53 0 50 -3 61 -16 61 -14 0 -16 -9 -10 -62 9 -73 11 -78 36 -78 24 0 30 19 30
101 0 64 -6 80 -23 62z"/>
<path d="M2926 508 c13 -102 19 -131 30 -135 14 -5 48 122 39 144 -7 17 -8 16
-15 -2 -5 -11 -9 -31 -9 -44 -1 -37 -12 -18 -19 35 -4 26 -13 49 -20 52 -10 3
-11 -8 -6 -50z"/>
<path d="M1121 480 c-21 -97 -24 -130 -12 -130 6 0 11 7 11 15 0 8 9 19 20 25
14 8 20 8 20 0 0 -6 5 -8 10 -5 6 3 10 13 10 22 0 27 -31 123 -40 123 -5 0
-13 -22 -19 -50z m18 -64 c-9 -8 -10 -7 -5 7 3 10 7 24 7 30 1 7 3 4 6 -7 3
-10 -1 -23 -8 -30z"/>
<path d="M2873 493 c9 -9 19 -14 23 -11 10 10 -6 28 -24 28 -15 0 -15 -1 1
-17z"/>
<path d="M3020 420 c0 -49 3 -90 8 -90 4 0 17 -3 30 -6 27 -8 30 12 2 21 -11
4 -20 15 -20 27 0 14 5 18 15 14 9 -3 15 0 15 8 0 8 -7 16 -15 20 -8 3 -15 17
-15 32 0 19 4 25 15 21 29 -12 25 12 -5 28 l-30 16 0 -91z"/>
<path d="M3090 391 c0 -44 5 -83 10 -86 6 -3 10 3 10 14 0 28 18 27 22 -1 2
-12 9 -23 16 -26 10 -3 11 3 6 24 -8 31 -8 36 2 76 5 21 0 33 -19 52 -15 14
-31 26 -37 26 -6 0 -10 -31 -10 -79z m40 9 c0 -16 -4 -30 -10 -30 -5 0 -10 14
-10 30 0 17 5 30 10 30 6 0 10 -13 10 -30z"/>
<path d="M960 375 c0 -50 4 -85 10 -85 6 0 10 9 10 20 0 21 15 27 25 10 12
-20 26 -10 15 10 -8 15 -8 30 0 55 14 44 0 75 -35 75 -25 0 -25 -1 -25 -85z
m43 52 c3 -7 -1 -26 -8 -42 l-13 -30 -1 43 c-1 40 11 57 22 29z"/>
<path d="M893 433 c-13 -5 -19 -143 -8 -155 8 -8 55 3 55 13 0 5 -7 9 -15 9
-8 0 -15 9 -15 20 0 11 7 20 15 20 8 0 15 5 15 11 0 6 -6 9 -14 6 -10 -4 -15
4 -18 25 -4 24 -1 32 14 36 10 2 18 8 18 13 0 10 -27 11 -47 2z"/>
<path d="M3175 428 c-10 -27 10 -131 28 -142 33 -21 52 4 55 74 2 35 -2 68 -7
73 -8 8 -11 -9 -11 -54 0 -70 -4 -81 -26 -72 -10 4 -14 23 -14 69 0 37 -4 64
-10 64 -6 0 -13 -6 -15 -12z"/>
<path d="M3344 401 l-18 -44 -11 34 c-21 61 -35 47 -35 -35 0 -60 3 -76 15
-76 11 0 13 8 9 33 -4 26 -3 29 6 15 6 -10 15 -18 20 -18 5 0 11 8 13 18 3 11
7 7 12 -15 4 -18 11 -33 16 -33 11 0 10 105 -1 140 -7 24 -8 23 -26 -19z"/>
<path d="M680 356 c0 -62 3 -76 15 -76 13 0 15 12 13 72 -2 46 -7 73 -15 76
-10 3 -13 -16 -13 -72z"/>
<path d="M1054 415 c-10 -8 -14 -15 -7 -15 19 0 43 11 43 21 0 13 -14 11 -36
-6z"/>
<path d="M722 348 c2 -44 7 -71 13 -68 6 2 9 11 7 18 -2 8 1 11 7 7 6 -3 11
-13 11 -21 0 -16 16 -19 25 -4 10 15 -6 141 -16 134 -5 -3 -9 -17 -10 -32 -1
-26 -1 -26 -10 6 -17 57 -30 37 -27 -40z"/>
<path d="M795 410 c-3 -5 1 -10 9 -10 11 0 16 -15 18 -62 2 -42 7 -63 17 -66
12 -4 13 7 8 58 -6 53 -4 65 11 76 15 12 13 13 -20 14 -20 0 -40 -4 -43 -10z"/>
<path d="M2584 989 c1 -17 12 -39 23 -51 l21 -20 0 25 c0 14 -7 28 -14 31 -27
10 -14 22 24 20 28 -1 30 0 7 3 -16 2 -34 9 -39 14 -18 17 -26 9 -22 -22z m31
-29 c3 -5 2 -10 -4 -10 -5 0 -13 5 -16 10 -3 6 -2 10 4 10 5 0 13 -4 16 -10z"/>
<path d="M2847 1002 c-16 -10 -31 -29 -34 -44 -3 -16 -8 -28 -10 -28 -3 0 -21
14 -40 30 -18 17 -41 30 -51 29 -14 0 -14 -2 -2 -6 8 -3 30 -19 48 -34 42 -37
58 -36 66 2 3 18 11 29 18 27 7 -3 20 4 29 15 16 20 16 20 37 -1 14 -14 34
-22 55 -21 l32 1 -35 8 c-18 5 -39 15 -46 24 -14 20 -31 19 -67 -2z"/>
<path d="M2880 976 c0 -29 46 -49 103 -44 52 5 52 5 19 -9 -57 -24 -172 -34
-359 -31 -112 2 -186 -1 -192 -7 -6 -7 48 -11 162 -13 95 -2 174 -6 176 -8 6
-6 -32 -45 -54 -55 -15 -7 -13 -8 10 -4 17 3 41 18 55 34 20 22 39 30 100 40
78 12 168 49 191 79 13 16 12 16 -11 1 -38 -24 -158 -16 -182 13 -15 16 -18
17 -18 4z"/>
<path d="M1025 955 c47 -40 104 -63 185 -76 60 -9 80 -17 102 -40 28 -28 65
-45 75 -35 4 3 0 6 -9 6 -15 0 -65 47 -57 54 2 3 84 6 181 8 123 2 171 6 160
13 -10 6 -90 9 -197 7 -185 -3 -300 8 -357 31 l-33 14 50 -4 c53 -4 95 11 103
37 4 12 1 12 -14 -2 -31 -27 -143 -31 -185 -7 l-34 20 30 -26z"/>
<path d="M2533 973 c9 -2 23 -2 30 0 6 3 -1 5 -18 5 -16 0 -22 -2 -12 -5z"/>
<path d="M4147 913 c-4 -3 -7 -19 -7 -35 l0 -28 3810 0 3810 0 0 35 0 35
-3803 0 c-2092 0 -3807 -3 -3810 -7z"/>
</g>
</svg>
